<?xml version="1.0" encoding="utf-8"?>
<!DOCTYPE svg PUBLIC "-//W3C//DTD SVG 1.1//EN"
  "http://www.w3.org/Graphics/SVG/1.1/DTD/svg11.dtd">
<svg id="Layer_1" xmlns="http://www.w3.org/2000/svg"
     width="156.012" height="28.975" viewBox="0 0 156.012 28.975" xml:space="preserve">
  <defs>
    <style>.cls-1{fill:#fff;}</style>
  </defs>
  <title>Quipucords</title>
  <path class="cls-1"
        d="M22.707,12.6a11.343,11.343,0,0,1-.925,4.567,11.145,11.145,0,0,1-2.5,3.642l2.037,2.283-1.728,1.327-2.006-2.284a10.622,10.622,0,0,1-2.654,1.188,10.667,10.667,0,0,1-7.159-.447,10.673,10.673,0,0,1-3.425-2.36,10.977,10.977,0,0,1-2.284-3.549A11.506,11.506,0,0,1,1.23,12.6a11.508,11.508,0,0,1,.833-4.366A10.972,10.972,0,0,1,4.347,4.684,10.675,10.675,0,0,1,7.772,2.323a10.356,10.356,0,0,1,4.2-.864,10.324,10.324,0,0,1,4.212.864,10.721,10.721,0,0,1,3.41,2.361,10.97,10.97,0,0,1,2.283,3.548A11.489,11.489,0,0,1,22.707,12.6ZM14.9,15.869l2.87,3.24a8.8,8.8,0,0,0,1.852-2.884A9.611,9.611,0,0,0,20.3,12.6a9.587,9.587,0,0,0-.648-3.533,9.023,9.023,0,0,0-1.758-2.854,8.143,8.143,0,0,0-2.639-1.9,7.841,7.841,0,0,0-3.286-.694,7.841,7.841,0,0,0-3.286.694,8.132,8.132,0,0,0-2.639,1.9A9.005,9.005,0,0,0,4.286,9.065,9.587,9.587,0,0,0,3.637,12.6a9.576,9.576,0,0,0,.649,3.533,9,9,0,0,0,1.758,2.855,8.132,8.132,0,0,0,2.639,1.9,7.841,7.841,0,0,0,3.286.694,7.968,7.968,0,0,0,2.176-.293,8.236,8.236,0,0,0,1.928-.818l-2.9-3.271Z"
        transform="translate(-1.23 -0.873)"/>
  <path class="cls-1"
        d="M28.94,8.34v9.072a4.51,4.51,0,0,0,1.08,3.179,3.792,3.792,0,0,0,2.932,1.172,4.443,4.443,0,0,0,2.252-.586,4.782,4.782,0,0,0,1.7-1.7V8.34h2.253V23.4H36.9V20.961a5.988,5.988,0,0,1-2.067,2.006,5.436,5.436,0,0,1-2.715.679,5.271,5.271,0,0,1-3.935-1.559,5.508,5.508,0,0,1-1.527-4.026V8.34Z"
        transform="translate(-1.23 -0.873)"/>
  <path class="cls-1"
        d="M44.924,4.637a1.573,1.573,0,0,1-1.157-.478A1.571,1.571,0,0,1,43.289,3a1.54,1.54,0,0,1,.478-1.127A1.577,1.577,0,0,1,44.924,1.4a1.544,1.544,0,0,1,1.126.478A1.544,1.544,0,0,1,46.528,3a1.6,1.6,0,0,1-.463,1.157A1.524,1.524,0,0,1,44.924,4.637Zm1.111,3.7V23.4H43.782V8.34Z"
        transform="translate(-1.23 -0.873)"/>
  <path class="cls-1"
        d="M50.663,29.848V8.34h2.222V10.5A5.737,5.737,0,0,1,55,8.757a6.267,6.267,0,0,1,2.761-.6,6.331,6.331,0,0,1,2.731.6A6.827,6.827,0,0,1,62.7,10.392a7.8,7.8,0,0,1,1.466,2.453,8.824,8.824,0,0,1,0,6.079,7.5,7.5,0,0,1-1.5,2.453,7.159,7.159,0,0,1-2.253,1.636,6.516,6.516,0,0,1-2.777.6A6.418,6.418,0,0,1,55,23.074a5.739,5.739,0,0,1-2.083-1.557v8.331ZM57.205,10.13a5.6,5.6,0,0,0-2.454.54A4.745,4.745,0,0,0,52.916,12.2v7.375a5.13,5.13,0,0,0,1.866,1.543,5.41,5.41,0,0,0,2.423.556,4.9,4.9,0,0,0,3.764-1.651,5.87,5.87,0,0,0,1.512-4.12,5.866,5.866,0,0,0-1.512-4.119A4.894,4.894,0,0,0,57.205,10.13Z"
        transform="translate(-1.23 -0.873)"/>
  <path class="cls-1"
        d="M70.844,8.34v9.072a4.51,4.51,0,0,0,1.079,3.179,3.8,3.8,0,0,0,2.932,1.172,4.437,4.437,0,0,0,2.252-.586,4.784,4.784,0,0,0,1.7-1.7V8.34h2.252V23.4H78.805V20.961a5.982,5.982,0,0,1-2.068,2.006,5.436,5.436,0,0,1-2.715.679,5.271,5.271,0,0,1-3.935-1.559,5.508,5.508,0,0,1-1.527-4.026V8.34Z"
        transform="translate(-1.23 -0.873)"/>
  <path class="cls-1"
        d="M92.566,21.64a5.934,5.934,0,0,0,2.33-.463,5.166,5.166,0,0,0,1.867-1.327l1.389,1.388a7.718,7.718,0,0,1-2.577,1.79,7.8,7.8,0,0,1-3.132.648,7.253,7.253,0,0,1-5.276-2.252,8.122,8.122,0,0,1-2.161-5.555,8.106,8.106,0,0,1,.571-3.055,7.683,7.683,0,0,1,1.574-2.468A7.325,7.325,0,0,1,89.512,8.7a7.153,7.153,0,0,1,2.931-.6,8.345,8.345,0,0,1,3.179.617,7.889,7.889,0,0,1,2.622,1.728l-1.45,1.574a5.917,5.917,0,0,0-1.944-1.373,5.625,5.625,0,0,0-2.314-.509,4.924,4.924,0,0,0-2.083.447A5.062,5.062,0,0,0,88.787,11.8a6.1,6.1,0,0,0-1.528,4.073A5.817,5.817,0,0,0,88.8,19.974,4.939,4.939,0,0,0,92.566,21.64Z"
        transform="translate(-1.23 -0.873)"/>
  <path class="cls-1"
        d="M100.25,15.869a8.4,8.4,0,0,1,.555-3.085,7.737,7.737,0,0,1,1.528-2.469,6.8,6.8,0,0,1,2.329-1.635,7.5,7.5,0,0,1,5.817,0,7.024,7.024,0,0,1,2.33,1.635,7.618,7.618,0,0,1,1.543,2.469,8.822,8.822,0,0,1-.016,6.2,7.7,7.7,0,0,1-1.543,2.484,7.182,7.182,0,0,1-5.23,2.237,6.957,6.957,0,0,1-2.885-.6,7.039,7.039,0,0,1-2.315-1.651,7.925,7.925,0,0,1-1.543-2.483A8.309,8.309,0,0,1,100.25,15.869Zm7.313,5.832a4.689,4.689,0,0,0,3.656-1.65,6.024,6.024,0,0,0,1.466-4.151,6.08,6.08,0,0,0-1.466-4.166,4.672,4.672,0,0,0-3.656-1.666,4.625,4.625,0,0,0-3.641,1.666,6.119,6.119,0,0,0-1.451,4.166,6.062,6.062,0,0,0,1.451,4.151A4.642,4.642,0,0,0,107.563,21.7Z"
        transform="translate(-1.23 -0.873)"/>
  <path class="cls-1"
        d="M118.856,23.4V8.34h2.253V11.4a5.528,5.528,0,0,1,1.682-2.453,3.9,3.9,0,0,1,2.515-.88,5.484,5.484,0,0,1,.74.047,3.339,3.339,0,0,1,.679.169v2.037a5.95,5.95,0,0,0-.787-.2,4.37,4.37,0,0,0-.787-.077,3.842,3.842,0,0,0-2.422.8,5.282,5.282,0,0,0-1.62,2.253V23.4Z"
        transform="translate(-1.23 -0.873)"/>
  <path class="cls-1"
        d="M139.839,23.4v-2a5.755,5.755,0,0,1-2.1,1.651,6.625,6.625,0,0,1-5.446-.031,6.823,6.823,0,0,1-2.206-1.636,7.767,7.767,0,0,1-1.466-2.453,8.426,8.426,0,0,1-.54-3.024,8.524,8.524,0,0,1,.54-3.055,7.474,7.474,0,0,1,1.5-2.453,7.129,7.129,0,0,1,2.253-1.635,6.5,6.5,0,0,1,2.777-.6,6.259,6.259,0,0,1,2.592.54,6.087,6.087,0,0,1,2.1,1.558V1.335l2.253-.462V23.4Zm-9.534-7.529a5.866,5.866,0,0,0,1.511,4.119,4.892,4.892,0,0,0,3.765,1.652,5.637,5.637,0,0,0,2.438-.525,4.749,4.749,0,0,0,1.82-1.481V12.167a5.113,5.113,0,0,0-1.866-1.5,5.466,5.466,0,0,0-2.392-.54,4.918,4.918,0,0,0-3.765,1.635A5.819,5.819,0,0,0,130.305,15.869Z"
        transform="translate(-1.23 -0.873)"/>
  <path class="cls-1"
        d="M145.27,21.454l1.2-1.48a10.734,10.734,0,0,0,2.484,1.434,6.48,6.48,0,0,0,2.36.447,4.555,4.555,0,0,0,2.716-.771,2.309,2.309,0,0,0,1.079-1.944,1.769,1.769,0,0,0-.647-1.451,4.792,4.792,0,0,0-2.068-.8l-2.468-.433A6.4,6.4,0,0,1,146.7,15.1a3.36,3.36,0,0,1-1.033-2.592A3.9,3.9,0,0,1,147.2,9.328a6.011,6.011,0,0,1,3.9-1.235,9.226,9.226,0,0,1,2.931.463,11.651,11.651,0,0,1,2.808,1.42l-1.112,1.573a8.832,8.832,0,0,0-2.344-1.218,7.538,7.538,0,0,0-2.376-.386,3.962,3.962,0,0,0-2.376.648,2.058,2.058,0,0,0-.9,1.759,1.773,1.773,0,0,0,.571,1.419,4.275,4.275,0,0,0,2.021.741l2.53.463a6.509,6.509,0,0,1,3.318,1.388,3.447,3.447,0,0,1,1.064,2.654,4.107,4.107,0,0,1-1.681,3.3,6.444,6.444,0,0,1-4.182,1.358,9.987,9.987,0,0,1-3.425-.571A7.391,7.391,0,0,1,145.27,21.454Z"
        transform="translate(-1.23 -0.873)"/>
</svg>
