<?xml version="1.0" encoding="utf-8"?>
<!DOCTYPE svg PUBLIC "-//W3C//DTD SVG 1.1//EN"
  "http://www.w3.org/Graphics/SVG/1.1/DTD/svg11.dtd">
<svg id="Layer_1" xmlns="http://www.w3.org/2000/svg"
     width="244.797px" height="30.586px" viewBox="0 0 244.797 30.586">
  <defs>
    <style>.cls-1{fill:#fff;}</style>
  </defs>
  <title>prodisco</title>
  <path class="cls-1"
        d="M1.848,13.171c0-2.037-.066-3.679-.132-5.191h2.6l.131,2.727h.065a6.252,6.252,0,0,1,5.651-3.088c3.844,0,6.735,3.253,6.735,8.082,0,5.716-3.482,8.541-7.228,8.541a5.576,5.576,0,0,1-4.9-2.5H4.706v8.641H1.848Zm2.858,4.238a6.5,6.5,0,0,0,.131,1.183,4.461,4.461,0,0,0,4.336,3.384c3.056,0,4.83-2.5,4.83-6.144,0-3.186-1.676-5.914-4.731-5.914A4.614,4.614,0,0,0,4.9,13.5a4.662,4.662,0,0,0-.2,1.182Z"
        transform="translate(-1.716 -0.556)"/>
  <path class="cls-1"
        d="M20.542,12.941c0-1.873-.034-3.482-.132-4.961h2.529l.1,3.122h.131a4.771,4.771,0,0,1,4.4-3.483,3.115,3.115,0,0,1,.821.1v2.726a4.33,4.33,0,0,0-.986-.1c-2.036,0-3.482,1.544-3.876,3.712a8.1,8.1,0,0,0-.132,1.347v8.476H20.542Z"
        transform="translate(-1.716 -0.556)"/>
  <path class="cls-1"
        d="M45.346,15.8c0,5.881-4.074,8.443-7.918,8.443-4.3,0-7.621-3.153-7.621-8.18,0-5.322,3.482-8.443,7.884-8.443C42.257,7.619,45.346,10.937,45.346,15.8Zm-12.616.164c0,3.483,2,6.111,4.83,6.111,2.759,0,4.829-2.6,4.829-6.176,0-2.694-1.347-6.111-4.764-6.111S32.73,12.941,32.73,15.963Z"
        transform="translate(-1.716 -0.556)"/>
  <path class="cls-1"
        d="M62.726.556V19.774c0,1.413.032,3.023.131,4.107H60.262l-.132-2.76h-.066a5.878,5.878,0,0,1-5.42,3.121c-3.844,0-6.8-3.252-6.8-8.082-.033-5.288,3.252-8.541,7.129-8.541a5.316,5.316,0,0,1,4.8,2.431h.065V.556Zm-2.892,13.9a5.076,5.076,0,0,0-.131-1.215,4.251,4.251,0,0,0-4.172-3.351c-2.989,0-4.763,2.628-4.763,6.143,0,3.22,1.576,5.881,4.7,5.881A4.345,4.345,0,0,0,59.7,18.46a5,5,0,0,0,.131-1.248Z"
        transform="translate(-1.716 -0.556)"/>
  <path class="cls-1"
        d="M80.829,19.544c0,1.643.033,3.089.131,4.337H78.4l-.165-2.6h-.065a5.983,5.983,0,0,1-5.256,2.957c-2.5,0-5.487-1.38-5.487-6.965V7.98h2.891v8.805c0,3.023.92,5.059,3.548,5.059a4.181,4.181,0,0,0,3.811-2.628,4.236,4.236,0,0,0,.263-1.479V7.98h2.891Z"
        transform="translate(-1.716 -0.556)"/>
  <path class="cls-1"
        d="M96.96,23.289a10.633,10.633,0,0,1-4.566.92c-4.8,0-7.917-3.252-7.917-8.114,0-4.895,3.35-8.443,8.541-8.443a9.672,9.672,0,0,1,4.008.821l-.657,2.234a6.708,6.708,0,0,0-3.351-.755c-3.646,0-5.618,2.694-5.618,6.011,0,3.68,2.366,5.947,5.519,5.947a8.215,8.215,0,0,0,3.548-.789Z"
        transform="translate(-1.716 -0.556)"/>
  <path class="cls-1"
        d="M104.254,3.414V7.98h4.14v2.2h-4.14v8.574c0,1.971.558,3.088,2.168,3.088a6.41,6.41,0,0,0,1.676-.2l.131,2.169a7.072,7.072,0,0,1-2.562.394,4.008,4.008,0,0,1-3.121-1.215c-.821-.854-1.117-2.267-1.117-4.14V10.182H98.965V7.98h2.464V4.169Z"
        transform="translate(-1.716 -0.556)"/>
  <path class="cls-1"
        d="M132.344.556V19.774c0,1.413.032,3.023.131,4.107H129.88l-.131-2.76h-.066a5.881,5.881,0,0,1-5.421,3.121c-3.844,0-6.8-3.252-6.8-8.082-.033-5.288,3.252-8.541,7.129-8.541a5.315,5.315,0,0,1,4.8,2.431h.066V.556Zm-2.891,13.9a5.077,5.077,0,0,0-.132-1.215,4.251,4.251,0,0,0-4.172-3.351c-2.989,0-4.763,2.628-4.763,6.143,0,3.22,1.576,5.881,4.7,5.881a4.345,4.345,0,0,0,4.238-3.45,5,5,0,0,0,.132-1.248Z"
        transform="translate(-1.716 -0.556)"/>
  <path class="cls-1"
        d="M140.361,3.513a1.791,1.791,0,0,1-3.581,0,1.762,1.762,0,0,1,1.807-1.807A1.716,1.716,0,0,1,140.361,3.513Zm-3.219,20.368V7.98h2.89v15.9Z"
        transform="translate(-1.716 -0.556)"/>
  <path class="cls-1"
        d="M144.436,20.924a7.576,7.576,0,0,0,3.81,1.15c2.1,0,3.088-1.052,3.088-2.365,0-1.38-.821-2.136-2.957-2.924-2.857-1.018-4.205-2.6-4.205-4.5,0-2.562,2.07-4.665,5.486-4.665a7.939,7.939,0,0,1,3.91.985l-.722,2.1a6.2,6.2,0,0,0-3.253-.92c-1.708,0-2.661.986-2.661,2.169,0,1.314.953,1.905,3.022,2.693,2.76,1.052,4.173,2.431,4.173,4.8,0,2.792-2.168,4.763-5.947,4.763a9.065,9.065,0,0,1-4.467-1.084Z"
        transform="translate(-1.716 -0.556)"/>
  <path class="cls-1"
        d="M169.174,23.289a10.642,10.642,0,0,1-4.567.92c-4.8,0-7.918-3.252-7.918-8.114,0-4.895,3.352-8.443,8.542-8.443a9.668,9.668,0,0,1,4.008.821l-.657,2.234a6.7,6.7,0,0,0-3.351-.755c-3.646,0-5.618,2.694-5.618,6.011,0,3.68,2.366,5.947,5.52,5.947a8.222,8.222,0,0,0,3.548-.789Z"
        transform="translate(-1.716 -0.556)"/>
  <path class="cls-1"
        d="M186.75,15.8c0,5.881-4.073,8.443-7.917,8.443-4.3,0-7.622-3.153-7.622-8.18,0-5.322,3.482-8.443,7.885-8.443C183.662,7.619,186.75,10.937,186.75,15.8Zm-12.615.164c0,3.483,2,6.111,4.83,6.111,2.759,0,4.829-2.6,4.829-6.176,0-2.694-1.348-6.111-4.764-6.111S174.135,12.941,174.135,15.963Z"
        transform="translate(-1.716 -0.556)"/>
  <path class="cls-1"
        d="M191.286,7.98l3.12,8.936a40.644,40.644,0,0,1,1.282,4.074h.1c.361-1.314.821-2.629,1.348-4.074l3.088-8.936h3.022L197,23.881h-2.76L188.2,7.98Z"
        transform="translate(-1.716 -0.556)"/>
  <path class="cls-1"
        d="M207.253,16.456c.065,3.909,2.562,5.52,5.454,5.52a10.447,10.447,0,0,0,4.4-.822l.494,2.07a12.885,12.885,0,0,1-5.29.985c-4.9,0-7.819-3.219-7.819-8.016s2.825-8.574,7.458-8.574c5.191,0,6.57,4.567,6.57,7.49a10.893,10.893,0,0,1-.1,1.347Zm8.476-2.069c.033-1.84-.755-4.7-4.008-4.7-2.924,0-4.205,2.695-4.435,4.7Z"
        transform="translate(-1.716 -0.556)"/>
  <path class="cls-1"
        d="M222.1,12.941c0-1.873-.034-3.482-.132-4.961h2.53l.1,3.122h.131a4.771,4.771,0,0,1,4.4-3.483,3.115,3.115,0,0,1,.821.1v2.726a4.333,4.333,0,0,0-.985-.1c-2.037,0-3.483,1.544-3.877,3.712a8.1,8.1,0,0,0-.132,1.347v8.476H222.1Z"
        transform="translate(-1.716 -0.556)"/>
  <path class="cls-1"
        d="M234.719,7.98l3.482,9.4c.361,1.052.756,2.3,1.019,3.253h.065c.3-.953.624-2.169,1.019-3.318l3.154-9.331h3.055l-4.336,11.334c-2.071,5.454-3.483,8.247-5.454,9.955a7.846,7.846,0,0,1-3.548,1.873l-.723-2.432a7.624,7.624,0,0,0,2.529-1.412,8.753,8.753,0,0,0,2.432-3.22,2.083,2.083,0,0,0,.23-.69,2.508,2.508,0,0,0-.2-.755L231.565,7.98Z"
        transform="translate(-1.716 -0.556)"/>
</svg>
