<?xml version="1.0" encoding="utf-8"?>
<!DOCTYPE svg PUBLIC "-//W3C//DTD SVG 1.1//EN"
  "http://www.w3.org/Graphics/SVG/1.1/DTD/svg11.dtd">
<svg id="Layer_1" xmlns="http://www.w3.org/2000/svg"
     width="153.035px" height="29.83px" viewBox="0 0 153.035 29.83" xml:space="preserve">
  <defs>
    <style>.cls-1{fill:#fff;}</style>
  </defs>
  <title>quipucords</title>
  <path class="cls-1"
        d="M12.688,22.417h-.065a5.659,5.659,0,0,1-5.191,2.825C3.72,25.242.7,22.022.7,17.193c0-5.946,3.844-8.574,7.194-8.574a5.225,5.225,0,0,1,4.9,2.759h.066l.1-2.4h2.726c-.066,1.347-.1,2.727-.1,4.37V31.386H12.688Zm0-7a4.9,4.9,0,0,0-.131-1.215,4.226,4.226,0,0,0-4.139-3.286c-2.99,0-4.8,2.53-4.8,6.111,0,3.154,1.511,5.913,4.7,5.913a4.3,4.3,0,0,0,4.139-3.153,4.836,4.836,0,0,0,.23-1.38Z"
        transform="translate(-0.698 -1.556)"/>
  <path class="cls-1"
        d="M33.649,20.544c0,1.643.034,3.089.132,4.337H31.219l-.165-2.6h-.065a5.984,5.984,0,0,1-5.257,2.957c-2.5,0-5.486-1.38-5.486-6.965V8.98h2.891v8.805c0,3.023.92,5.059,3.548,5.059A4.181,4.181,0,0,0,30.5,20.216a4.236,4.236,0,0,0,.263-1.479V8.98h2.89Z"
        transform="translate(-0.698 -1.556)"/>
  <path class="cls-1"
        d="M41.667,4.513a1.791,1.791,0,0,1-3.582,0,1.762,1.762,0,0,1,1.808-1.807A1.716,1.716,0,0,1,41.667,4.513Zm-3.22,20.368V8.98h2.891v15.9Z"
        transform="translate(-0.698 -1.556)"/>
  <path class="cls-1"
        d="M46.135,14.171c0-2.037-.066-3.679-.132-5.191h2.6l.131,2.727H48.8a6.252,6.252,0,0,1,5.651-3.088c3.844,0,6.734,3.253,6.734,8.082,0,5.716-3.482,8.541-7.227,8.541a5.576,5.576,0,0,1-4.9-2.5h-.066v8.641H46.135Zm2.858,4.238a6.493,6.493,0,0,0,.132,1.183,4.461,4.461,0,0,0,4.336,3.384c3.055,0,4.83-2.5,4.83-6.144,0-3.186-1.676-5.914-4.731-5.914A4.615,4.615,0,0,0,49.19,14.5a4.707,4.707,0,0,0-.2,1.182Z"
        transform="translate(-0.698 -1.556)"/>
  <path class="cls-1"
        d="M78.134,20.544c0,1.643.033,3.089.132,4.337H75.7l-.164-2.6h-.066a5.983,5.983,0,0,1-5.256,2.957c-2.5,0-5.487-1.38-5.487-6.965V8.98h2.891v8.805c0,3.023.92,5.059,3.548,5.059a4.067,4.067,0,0,0,4.074-4.107V8.98h2.891Z"
        transform="translate(-0.698 -1.556)"/>
  <path class="cls-1"
        d="M94.266,24.289a10.642,10.642,0,0,1-4.567.92c-4.8,0-7.917-3.252-7.917-8.114,0-4.895,3.35-8.443,8.541-8.443a9.672,9.672,0,0,1,4.008.821l-.657,2.234a6.708,6.708,0,0,0-3.351-.755c-3.646,0-5.617,2.694-5.617,6.011,0,3.68,2.365,5.947,5.519,5.947a8.213,8.213,0,0,0,3.547-.789Z"
        transform="translate(-0.698 -1.556)"/>
  <path class="cls-1"
        d="M111.843,16.8c0,5.881-4.074,8.443-7.918,8.443-4.3,0-7.621-3.153-7.621-8.18,0-5.322,3.482-8.443,7.884-8.443C108.754,8.619,111.843,11.937,111.843,16.8Zm-12.615.164c0,3.483,2,6.111,4.829,6.111,2.759,0,4.829-2.6,4.829-6.176,0-2.694-1.347-6.111-4.763-6.111S99.228,13.941,99.228,16.963Z"
        transform="translate(-0.698 -1.556)"/>
  <path class="cls-1"
        d="M115.491,13.941c0-1.873-.033-3.482-.132-4.961h2.53l.1,3.122h.132a4.77,4.77,0,0,1,4.4-3.483,3.11,3.11,0,0,1,.821.1v2.726a4.33,4.33,0,0,0-.986-.1c-2.036,0-3.482,1.544-3.876,3.712a8.212,8.212,0,0,0-.131,1.347v8.476h-2.858Z"
        transform="translate(-0.698 -1.556)"/>
  <path class="cls-1"
        d="M139.638,1.556V20.774c0,1.413.032,3.023.131,4.107h-2.595l-.132-2.76h-.065a5.881,5.881,0,0,1-5.421,3.121c-3.844,0-6.8-3.252-6.8-8.082-.033-5.288,3.252-8.541,7.129-8.541a5.316,5.316,0,0,1,4.8,2.431h.066V1.556Zm-2.891,13.9a5.077,5.077,0,0,0-.132-1.215,4.251,4.251,0,0,0-4.172-3.351c-2.989,0-4.763,2.628-4.763,6.143,0,3.22,1.576,5.881,4.7,5.881a4.345,4.345,0,0,0,4.238-3.45,5,5,0,0,0,.132-1.248Z"
        transform="translate(-0.698 -1.556)"/>
  <path class="cls-1"
        d="M144.041,21.924a7.584,7.584,0,0,0,3.812,1.15c2.1,0,3.087-1.052,3.087-2.365,0-1.38-.821-2.136-2.956-2.924-2.859-1.018-4.205-2.6-4.205-4.5,0-2.562,2.07-4.665,5.487-4.665a7.94,7.94,0,0,1,3.908.985l-.723,2.1a6.183,6.183,0,0,0-3.252-.92c-1.708,0-2.66.986-2.66,2.169,0,1.314.952,1.905,3.022,2.693,2.759,1.052,4.171,2.431,4.171,4.8,0,2.792-2.168,4.763-5.945,4.763a9.073,9.073,0,0,1-4.469-1.084Z"
        transform="translate(-0.698 -1.556)"/>
</svg>
