<?xml version="1.0" encoding="utf-8"?>
<!DOCTYPE svg PUBLIC "-//W3C//DTD SVG 1.1//EN"
  "http://www.w3.org/Graphics/SVG/1.1/DTD/svg11.dtd">
<svg version="1.1" id="Layer_1" xmlns="http://www.w3.org/2000/svg"
     xmlns:xlink="http://www.w3.org/1999/xlink" x="0px" y="0px"
     width="278px" height="32px" viewBox="0 0 278 32"
     enable-background="new 0 0 278 32" xml:space="preserve">
<style type="text/css">.st0{fill:#ffffff; stroke:#ffffff}</style>
  <g>
    <path class="st0" d="M8.182,24.328c-2.634,0-4.554-0.968-5.76-2.904h-0.11l0.047,1.298c0.042,0.763,0.063,1.597,0.063,2.503v6.396H0.864V7.225
      h1.322L2.485,9.62H2.58C3.754,7.807,5.633,6.9,8.213,6.9c2.308,0,4.068,0.744,5.28,2.232c1.211,1.489,1.817,3.654,1.817,6.497
      c0,2.761-0.637,4.9-1.912,6.42C12.124,23.568,10.385,24.328,8.182,24.328z M8.15,22.969c1.752,0,3.108-0.639,4.068-1.916
      s1.44-3.064,1.44-5.361c0-4.934-1.815-7.401-5.445-7.401c-1.993,0-3.457,0.538-4.391,1.614c-0.934,1.077-1.4,2.83-1.4,5.261v0.494
      c0,2.626,0.448,4.501,1.345,5.625S6.125,22.969,8.15,22.969z"/>
    <path class="st0" d="M26.783,6.9c0.724,0,1.5,0.072,2.329,0.216l-0.299,1.468C28.1,8.41,27.36,8.322,26.595,8.322
      c-1.458,0-2.655,0.608-3.588,1.823c-0.934,1.215-1.4,2.75-1.4,4.604v9.271h-1.558V7.225h1.322l0.158,3.028h0.11
      c0.703-1.236,1.453-2.104,2.25-2.603S25.65,6.9,26.783,6.9z"/>
    <path class="st0" d="M46.739,15.599c0,2.74-0.677,4.879-2.03,6.419s-3.221,2.31-5.603,2.31c-1.5,0-2.822-0.355-3.966-1.065
      c-1.144-0.711-2.02-1.73-2.628-3.06c-0.609-1.328-0.913-2.863-0.913-4.604c0-2.74,0.677-4.875,2.03-6.404
      c1.354-1.53,3.21-2.294,5.571-2.294c2.35,0,4.194,0.775,5.531,2.325C46.07,10.776,46.739,12.9,46.739,15.599z M33.236,15.599
      c0,2.307,0.517,4.108,1.55,5.4c1.033,1.292,2.494,1.938,4.383,1.938s3.35-0.646,4.383-1.938s1.55-3.093,1.55-5.4
      c0-2.318-0.522-4.115-1.566-5.393c-1.044-1.277-2.51-1.916-4.398-1.916c-1.889,0-3.344,0.636-4.367,1.908
      S33.236,13.271,33.236,15.599z"/>
    <path class="st0" d="M57.739,6.9c1.238,0,2.308,0.222,3.21,0.665s1.71,1.2,2.424,2.271h0.094c-0.063-1.298-0.094-2.57-0.094-3.816v-6.041
      h1.542V24.02h-1.023l-0.393-2.564h-0.126c-1.301,1.916-3.169,2.873-5.603,2.873c-2.361,0-4.165-0.721-5.414-2.162
      c-1.249-1.442-1.873-3.544-1.873-6.304c0-2.905,0.619-5.125,1.857-6.659C53.579,7.668,55.378,6.9,57.739,6.9z M57.739,8.291
      c-1.867,0-3.271,0.644-4.209,1.931s-1.409,3.157-1.409,5.608c0,4.759,1.883,7.138,5.65,7.138c1.93,0,3.347-0.551,4.249-1.652
      c0.902-1.103,1.354-2.921,1.354-5.455v-0.263c0-2.596-0.443-4.463-1.33-5.601C61.156,8.86,59.722,8.291,57.739,8.291z"/>
    <path class="st0" d="M72.013,7.225v10.877c0,1.689,0.362,2.918,1.086,3.686c0.724,0.768,1.846,1.15,3.368,1.15
      c2.035,0,3.533-0.504,4.493-1.514s1.44-2.652,1.44-4.929V7.225h1.542V24.02H82.62l-0.283-2.317h-0.095
      c-1.112,1.751-3.09,2.626-5.933,2.626c-3.892,0-5.838-2.044-5.838-6.133V7.225H72.013z"/>
    <path class="st0" d="M96.5,24.328c-2.445,0-4.359-0.757-5.744-2.271c-1.385-1.514-2.078-3.625-2.078-6.334c0-2.781,0.719-4.947,2.156-6.497
      c1.437-1.55,3.404-2.325,5.901-2.325c1.479,0,2.896,0.252,4.249,0.757l-0.425,1.36c-1.479-0.484-2.765-0.726-3.855-0.726
      c-2.099,0-3.688,0.636-4.769,1.908s-1.621,3.103-1.621,5.493c0,2.266,0.541,4.041,1.621,5.323s2.591,1.923,4.532,1.923
      c1.553,0,2.996-0.272,4.328-0.818v1.422C99.705,24.066,98.273,24.328,96.5,24.328z"/>
    <path class="st0" d="M109.499,22.969c0.986,0,1.846-0.082,2.581-0.247v1.235c-0.755,0.248-1.626,0.371-2.613,0.371
      c-1.511,0-2.625-0.396-3.344-1.189c-0.719-0.793-1.078-2.039-1.078-3.738V8.554h-2.534V7.657l2.534-0.695l0.787-3.801h0.803v4.063
      h5.02v1.329h-5.02v10.63c0,1.287,0.23,2.24,0.692,2.858C107.789,22.66,108.513,22.969,109.499,22.969z"/>
    <path class="st0" d="M130.414,6.9c1.238,0,2.308,0.222,3.21,0.665s1.71,1.2,2.424,2.271h0.094c-0.063-1.298-0.094-2.57-0.094-3.816v-6.041
      h1.542V24.02h-1.023l-0.393-2.564h-0.126c-1.301,1.916-3.169,2.873-5.603,2.873c-2.361,0-4.165-0.721-5.414-2.162
      c-1.249-1.442-1.873-3.544-1.873-6.304c0-2.905,0.619-5.125,1.857-6.659C126.254,7.668,128.053,6.9,130.414,6.9z M130.414,8.291
      c-1.867,0-3.271,0.644-4.209,1.931s-1.409,3.157-1.409,5.608c0,4.759,1.883,7.138,5.65,7.138c1.93,0,3.347-0.551,4.249-1.652
      c0.902-1.103,1.354-2.921,1.354-5.455v-0.263c0-2.596-0.443-4.463-1.33-5.601C133.831,8.86,132.396,8.291,130.414,8.291z"/>
    <path class="st0" d="M143.114,2.559c0-0.989,0.33-1.483,0.991-1.483c0.325,0,0.58,0.129,0.764,0.386s0.275,0.623,0.275,1.097
      c0,0.464-0.092,0.83-0.275,1.097c-0.184,0.268-0.438,0.402-0.764,0.402C143.444,4.058,143.114,3.558,143.114,2.559z
       M144.893,24.02h-1.559V7.225h1.559V24.02z"/>
    <path class="st0" d="M161.228,19.646c0,1.504-0.583,2.66-1.747,3.469s-2.816,1.213-4.957,1.213c-2.287,0-4.103-0.345-5.445-1.035v-1.652
      c1.721,0.844,3.535,1.267,5.445,1.267c1.689,0,2.972-0.275,3.848-0.827c0.876-0.551,1.314-1.284,1.314-2.201
      c0-0.845-0.35-1.555-1.047-2.133c-0.697-0.576-1.844-1.143-3.438-1.699c-1.71-0.607-2.911-1.13-3.604-1.568
      c-0.691-0.438-1.214-0.932-1.565-1.483c-0.352-0.551-0.526-1.223-0.526-2.016c0-1.257,0.537-2.25,1.612-2.982
      s2.578-1.097,4.509-1.097c1.847,0,3.599,0.34,5.256,1.02l-0.582,1.391c-1.679-0.68-3.236-1.02-4.674-1.02
      c-1.396,0-2.502,0.227-3.32,0.68c-0.818,0.454-1.228,1.082-1.228,1.885c0,0.876,0.317,1.576,0.952,2.102s1.875,1.112,3.722,1.761
      c1.542,0.546,2.665,1.038,3.368,1.476c0.702,0.438,1.229,0.935,1.581,1.492C161.052,18.241,161.228,18.896,161.228,19.646z"/>
    <path class="st0" d="M172.465,24.328c-2.445,0-4.359-0.757-5.744-2.271c-1.385-1.514-2.078-3.625-2.078-6.334c0-2.781,0.719-4.947,2.156-6.497
      c1.438-1.55,3.404-2.325,5.901-2.325c1.479,0,2.896,0.252,4.249,0.757l-0.425,1.36c-1.479-0.484-2.765-0.726-3.855-0.726
      c-2.099,0-3.688,0.636-4.769,1.908s-1.621,3.103-1.621,5.493c0,2.266,0.541,4.041,1.621,5.323s2.592,1.923,4.532,1.923
      c1.553,0,2.995-0.272,4.328-0.818v1.422C175.67,24.066,174.237,24.328,172.465,24.328z"/>
    <path class="st0" d="M195.095,15.599c0,2.74-0.677,4.879-2.03,6.419s-3.221,2.31-5.603,2.31c-1.501,0-2.822-0.355-3.966-1.065
      c-1.144-0.711-2.02-1.73-2.628-3.06c-0.608-1.328-0.913-2.863-0.913-4.604c0-2.74,0.677-4.875,2.03-6.404
      c1.354-1.53,3.21-2.294,5.571-2.294c2.35,0,4.193,0.775,5.531,2.325C194.426,10.776,195.095,12.9,195.095,15.599z M181.592,15.599
      c0,2.307,0.517,4.108,1.551,5.4c1.033,1.292,2.494,1.938,4.383,1.938s3.35-0.646,4.383-1.938s1.55-3.093,1.55-5.4
      c0-2.318-0.522-4.115-1.565-5.393c-1.045-1.277-2.511-1.916-4.398-1.916c-1.889,0-3.345,0.636-4.367,1.908
      C182.104,11.471,181.592,13.271,181.592,15.599z"/>
    <path class="st0" d="M203.577,24.02l-6.61-16.795h1.605l4.422,11.418c0.588,1.463,1.029,2.74,1.322,3.832h0.095
      c0.431-1.4,0.87-2.688,1.321-3.863l4.423-11.387h1.604L205.15,24.02H203.577z"/>
    <path class="st0" d="M221.533,24.328c-2.486,0-4.425-0.752-5.814-2.256c-1.391-1.504-2.086-3.609-2.086-6.319c0-2.678,0.672-4.823,2.015-6.435
      C216.99,7.707,218.8,6.9,221.076,6.9c2.016,0,3.604,0.69,4.77,2.07c1.164,1.38,1.746,3.255,1.746,5.624v1.236H215.27
      c0.021,2.308,0.569,4.069,1.645,5.285c1.076,1.215,2.615,1.822,4.619,1.822c0.976,0,1.834-0.066,2.572-0.2
      c0.74-0.134,1.677-0.423,2.811-0.865v1.391c-0.967,0.411-1.857,0.692-2.676,0.842S222.52,24.328,221.533,24.328z M221.076,8.26
      c-1.646,0-2.969,0.533-3.965,1.6c-0.997,1.066-1.58,2.603-1.747,4.612h10.575c0-1.947-0.43-3.469-1.291-4.566
      C223.789,8.809,222.598,8.26,221.076,8.26z"/>
    <path class="st0" d="M239.049,6.9c0.725,0,1.5,0.072,2.329,0.216l-0.299,1.468c-0.714-0.175-1.453-0.263-2.219-0.263
      c-1.458,0-2.655,0.608-3.589,1.823s-1.4,2.75-1.4,4.604v9.271h-1.558V7.225h1.321l0.158,3.028h0.109
      c0.703-1.236,1.453-2.104,2.251-2.603S237.916,6.9,239.049,6.9z"/>
    <path class="st0" d="M241.992,7.225h1.604l3.62,9.425c1.102,2.896,1.799,4.847,2.093,5.856h0.095c0.44-1.329,1.158-3.312,2.156-5.949
      l3.619-9.332h1.605l-7.664,19.514c-0.619,1.586-1.139,2.658-1.559,3.215c-0.42,0.556-0.91,0.973-1.471,1.251
      c-0.562,0.278-1.241,0.417-2.039,0.417c-0.598,0-1.264-0.107-1.998-0.324v-1.329c0.608,0.165,1.264,0.247,1.967,0.247
      c0.535,0,1.008-0.123,1.416-0.371c0.41-0.246,0.779-0.631,1.11-1.15c0.33-0.521,0.714-1.344,1.148-2.473
      c0.436-1.127,0.716-1.861,0.843-2.201L241.992,7.225z"/>
  </g>
</svg>
