<?xml version="1.0" encoding="utf-8"?>
<!DOCTYPE svg PUBLIC "-//W3C//DTD SVG 1.1//EN"
  "http://www.w3.org/Graphics/SVG/1.1/DTD/svg11.dtd">
<svg id="Layer_1" xmlns="http://www.w3.org/2000/svg"
     width="241.4px" height="28.752px" viewBox="0 0 241.4 28.752">
  <defs>
    <style>.cls-1{fill:#fff;}</style>
  </defs>
  <title>prodisco</title>
  <path class="cls-1"
        d="M.908,29.828V8.486h2.2V10.63A5.713,5.713,0,0,1,5.21,8.9a6.22,6.22,0,0,1,2.74-.6,6.278,6.278,0,0,1,2.71.6,6.791,6.791,0,0,1,2.19,1.622A7.759,7.759,0,0,1,14.3,12.957a8.372,8.372,0,0,1,.536,3,8.457,8.457,0,0,1-.536,3.031,7.456,7.456,0,0,1-1.485,2.434,7.081,7.081,0,0,1-2.236,1.623,6.46,6.46,0,0,1-2.755.6,6.393,6.393,0,0,1-2.618-.536,5.7,5.7,0,0,1-2.067-1.546v8.267ZM7.4,10.262a5.558,5.558,0,0,0-2.434.536,4.71,4.71,0,0,0-1.822,1.516v7.318A5.093,5.093,0,0,0,5,21.163a5.362,5.362,0,0,0,2.4.551,4.86,4.86,0,0,0,3.736-1.638,5.824,5.824,0,0,0,1.5-4.088,5.826,5.826,0,0,0-1.5-4.088A4.864,4.864,0,0,0,7.4,10.262Z"
        transform="translate(-0.908 -1.076)"/>
  <path class="cls-1"
        d="M18.759,23.429V8.486h2.235v3.032a5.494,5.494,0,0,1,1.669-2.435,3.87,3.87,0,0,1,2.5-.872,5.4,5.4,0,0,1,.735.046,3.259,3.259,0,0,1,.674.168v2.021a5.9,5.9,0,0,0-.781-.2,4.3,4.3,0,0,0-.781-.077,3.809,3.809,0,0,0-2.4.8A5.237,5.237,0,0,0,20.994,13.2V23.429Z"
        transform="translate(-0.908 -1.076)"/>
  <path class="cls-1"
        d="M27.914,15.958a8.333,8.333,0,0,1,.551-3.062,7.709,7.709,0,0,1,1.515-2.45,6.784,6.784,0,0,1,2.312-1.623,7.446,7.446,0,0,1,5.772,0,6.972,6.972,0,0,1,2.312,1.623,7.54,7.54,0,0,1,1.531,2.45,8.756,8.756,0,0,1-.015,6.154,7.636,7.636,0,0,1-1.531,2.465,7.121,7.121,0,0,1-5.19,2.22,6.918,6.918,0,0,1-2.863-.6,6.994,6.994,0,0,1-2.3-1.638,7.868,7.868,0,0,1-1.531-2.465A8.26,8.26,0,0,1,27.914,15.958Zm7.257,5.787A4.649,4.649,0,0,0,38.8,20.106a5.968,5.968,0,0,0,1.454-4.118A6.03,6.03,0,0,0,38.8,11.854a4.791,4.791,0,0,0-7.241,0,6.069,6.069,0,0,0-1.439,4.134,6.006,6.006,0,0,0,1.439,4.118A4.6,4.6,0,0,0,35.171,21.745Z"
        transform="translate(-0.908 -1.076)"/>
  <path class="cls-1"
        d="M57.4,23.429V21.438a5.686,5.686,0,0,1-2.082,1.638,6.564,6.564,0,0,1-5.4-.03,6.768,6.768,0,0,1-2.189-1.623,7.708,7.708,0,0,1-1.455-2.434,8.372,8.372,0,0,1-.536-3,8.457,8.457,0,0,1,.536-3.031,7.437,7.437,0,0,1,1.485-2.435A7.086,7.086,0,0,1,49.99,8.9a6.452,6.452,0,0,1,2.756-.6,6.211,6.211,0,0,1,2.572.535A6.045,6.045,0,0,1,57.4,10.385V1.536l2.235-.46V23.429Zm-9.461-7.471a5.822,5.822,0,0,0,1.5,4.087,4.857,4.857,0,0,0,3.736,1.639,5.6,5.6,0,0,0,2.419-.521,4.711,4.711,0,0,0,1.806-1.47v-7.41A5.1,5.1,0,0,0,55.548,10.8a5.426,5.426,0,0,0-2.373-.536,4.879,4.879,0,0,0-3.736,1.623A5.77,5.77,0,0,0,47.939,15.958Z"
        transform="translate(-0.908 -1.076)"/>
  <path class="cls-1"
        d="M66.4,8.486v9a4.475,4.475,0,0,0,1.072,3.155,3.762,3.762,0,0,0,2.909,1.163,4.4,4.4,0,0,0,2.235-.582A4.747,4.747,0,0,0,74.3,19.54V8.486h2.235V23.429H74.3V21.01A5.951,5.951,0,0,1,72.25,23a5.385,5.385,0,0,1-2.694.674,5.229,5.229,0,0,1-3.9-1.547,5.466,5.466,0,0,1-1.516-3.995V8.486Z"
        transform="translate(-0.908 -1.076)"/>
  <path class="cls-1"
        d="M87.958,21.684a5.89,5.89,0,0,0,2.312-.46,5.123,5.123,0,0,0,1.852-1.317L93.5,21.285A7.842,7.842,0,0,1,87.835,23.7,7.193,7.193,0,0,1,82.6,21.469a8.057,8.057,0,0,1-2.143-5.511,8.063,8.063,0,0,1,.566-3.032,7.611,7.611,0,0,1,1.562-2.449,7.29,7.29,0,0,1,2.342-1.639,7.1,7.1,0,0,1,2.909-.6,8.269,8.269,0,0,1,3.154.613,7.808,7.808,0,0,1,2.6,1.714l-1.44,1.562a5.832,5.832,0,0,0-1.928-1.362,5.592,5.592,0,0,0-2.3-.506,4.9,4.9,0,0,0-2.067.444,5.024,5.024,0,0,0-1.653,1.21,6.037,6.037,0,0,0-1.516,4.042,5.768,5.768,0,0,0,1.531,4.072A4.9,4.9,0,0,0,87.958,21.684Z"
        transform="translate(-0.908 -1.076)"/>
  <path class="cls-1"
        d="M98.8,20.061V10.324H95.7V8.486H98.8v-4.1l2.236-.52V8.486h4.286v1.838h-4.286v9.155a2.4,2.4,0,0,0,.505,1.714,2.25,2.25,0,0,0,1.669.521,5.289,5.289,0,0,0,1.041-.092,8.093,8.093,0,0,0,1.071-.306v1.991a6.619,6.619,0,0,1-1.285.3,9.631,9.631,0,0,1-1.317.092,4.121,4.121,0,0,1-2.924-.933A3.538,3.538,0,0,1,98.8,20.061Z"
        transform="translate(-0.908 -1.076)"/>
  <path class="cls-1"
        d="M126.721,23.429V21.438a5.7,5.7,0,0,1-2.082,1.638,6.566,6.566,0,0,1-5.405-.03,6.79,6.79,0,0,1-2.189-1.623,7.724,7.724,0,0,1-1.454-2.434,8.35,8.35,0,0,1-.536-3,8.435,8.435,0,0,1,.536-3.031,7.437,7.437,0,0,1,1.485-2.435A7.074,7.074,0,0,1,119.311,8.9a6.449,6.449,0,0,1,2.756-.6,6.211,6.211,0,0,1,2.572.535,6.036,6.036,0,0,1,2.082,1.547V1.536l2.236-.46V23.429Zm-9.461-7.471a5.822,5.822,0,0,0,1.5,4.087,4.855,4.855,0,0,0,3.736,1.639,5.589,5.589,0,0,0,2.418-.521,4.721,4.721,0,0,0,1.807-1.47v-7.41a5.108,5.108,0,0,0-1.852-1.485,5.429,5.429,0,0,0-2.373-.536,4.878,4.878,0,0,0-3.736,1.623A5.77,5.77,0,0,0,117.26,15.958Z"
        transform="translate(-0.908 -1.076)"/>
  <path class="cls-1"
        d="M134.682,4.812a1.563,1.563,0,0,1-1.149-.475,1.564,1.564,0,0,1-.474-1.148,1.531,1.531,0,0,1,.474-1.118,1.566,1.566,0,0,1,1.149-.474,1.531,1.531,0,0,1,1.117.474,1.531,1.531,0,0,1,.474,1.118,1.59,1.59,0,0,1-.459,1.148A1.512,1.512,0,0,1,134.682,4.812Zm1.1,3.674V23.429h-2.234V8.486Z"
        transform="translate(-0.908 -1.076)"/>
  <path class="cls-1"
        d="M138.938,21.5l1.194-1.47a10.608,10.608,0,0,0,2.465,1.424,6.439,6.439,0,0,0,2.341.443,4.519,4.519,0,0,0,2.7-.765,2.292,2.292,0,0,0,1.071-1.929,1.749,1.749,0,0,0-.643-1.439,4.751,4.751,0,0,0-2.051-.8l-2.45-.429a6.344,6.344,0,0,1-3.2-1.347,3.331,3.331,0,0,1-1.025-2.572,3.872,3.872,0,0,1,1.516-3.154,5.963,5.963,0,0,1,3.873-1.225,9.15,9.15,0,0,1,2.909.46,11.592,11.592,0,0,1,2.786,1.408l-1.1,1.562a8.8,8.8,0,0,0-2.327-1.21,7.5,7.5,0,0,0-2.357-.382,3.932,3.932,0,0,0-2.358.643,2.041,2.041,0,0,0-.888,1.745,1.758,1.758,0,0,0,.566,1.408,4.238,4.238,0,0,0,2.006.735l2.511.459a6.461,6.461,0,0,1,3.292,1.378,3.421,3.421,0,0,1,1.055,2.634,4.073,4.073,0,0,1-1.668,3.276A6.389,6.389,0,0,1,145,23.7a9.882,9.882,0,0,1-3.4-.566A7.346,7.346,0,0,1,138.938,21.5Z"
        transform="translate(-0.908 -1.076)"/>
  <path class="cls-1"
        d="M161.2,21.684a5.886,5.886,0,0,0,2.312-.46,5.115,5.115,0,0,0,1.852-1.317l1.378,1.378a7.682,7.682,0,0,1-2.556,1.777,7.76,7.76,0,0,1-3.109.642,7.129,7.129,0,0,1-2.893-.6,7.056,7.056,0,0,1-2.342-1.638,8.052,8.052,0,0,1-2.144-5.511,8.044,8.044,0,0,1,.567-3.032,7.592,7.592,0,0,1,1.561-2.449,7.284,7.284,0,0,1,2.343-1.639,7.091,7.091,0,0,1,2.908-.6,8.269,8.269,0,0,1,3.154.613,7.808,7.808,0,0,1,2.6,1.714l-1.439,1.562a5.857,5.857,0,0,0-1.929-1.362,5.6,5.6,0,0,0-2.3-.506,4.894,4.894,0,0,0-2.066.444,5.018,5.018,0,0,0-1.654,1.21,5.924,5.924,0,0,0-1.1,1.806,6,6,0,0,0-.413,2.236,5.767,5.767,0,0,0,1.53,4.072A4.9,4.9,0,0,0,161.2,21.684Z"
        transform="translate(-0.908 -1.076)"/>
  <path class="cls-1"
        d="M168.821,15.958a8.333,8.333,0,0,1,.551-3.062,7.676,7.676,0,0,1,1.516-2.45A6.77,6.77,0,0,1,173.2,8.823a7.449,7.449,0,0,1,5.773,0,6.978,6.978,0,0,1,2.311,1.623,7.523,7.523,0,0,1,1.531,2.45,8.756,8.756,0,0,1-.015,6.154,7.636,7.636,0,0,1-1.531,2.465,7.121,7.121,0,0,1-5.19,2.22,6.918,6.918,0,0,1-2.863-.6,6.99,6.99,0,0,1-2.3-1.638,7.832,7.832,0,0,1-1.531-2.465A8.241,8.241,0,0,1,168.821,15.958Zm7.257,5.787a4.651,4.651,0,0,0,3.628-1.639,5.969,5.969,0,0,0,1.455-4.118,6.031,6.031,0,0,0-1.455-4.134,4.635,4.635,0,0,0-3.628-1.653,4.588,4.588,0,0,0-3.613,1.653,6.069,6.069,0,0,0-1.44,4.134,6.007,6.007,0,0,0,1.44,4.118A4.6,4.6,0,0,0,176.078,21.745Z"
        transform="translate(-0.908 -1.076)"/>
  <path class="cls-1"
        d="M191.112,23.429,184.988,8.486h2.419l4.838,12.157,4.777-12.157h2.388l-6.154,14.943Z"
        transform="translate(-0.908 -1.076)"/>
  <path class="cls-1"
        d="M214.046,21.714a9.43,9.43,0,0,1-2.663,1.5,8.729,8.729,0,0,1-2.94.489,7.266,7.266,0,0,1-5.282-2.235A7.558,7.558,0,0,1,201.6,19a8.154,8.154,0,0,1-.567-3.046,8.606,8.606,0,0,1,.535-3.047,7.413,7.413,0,0,1,1.486-2.45,7.089,7.089,0,0,1,2.235-1.623,6.534,6.534,0,0,1,2.786-.6,6.415,6.415,0,0,1,2.726.582,6.856,6.856,0,0,1,2.174,1.577,7.2,7.2,0,0,1,1.439,2.389,8.454,8.454,0,0,1,.521,2.985v.673H203.207a5.67,5.67,0,0,0,1.684,3.782,5,5,0,0,0,3.644,1.516,6.286,6.286,0,0,0,2.25-.414,5.671,5.671,0,0,0,1.853-1.117Zm-6-11.544a4.3,4.3,0,0,0-3.154,1.317,5.827,5.827,0,0,0-1.622,3.368h9.46a5.617,5.617,0,0,0-1.545-3.353A4.231,4.231,0,0,0,208.045,10.17Z"
        transform="translate(-0.908 -1.076)"/>
  <path class="cls-1"
        d="M218.762,23.429V8.486H221v3.032a5.494,5.494,0,0,1,1.669-2.435,3.874,3.874,0,0,1,2.5-.872,5.4,5.4,0,0,1,.735.046,3.25,3.25,0,0,1,.673.168v2.021a5.9,5.9,0,0,0-.781-.2,4.288,4.288,0,0,0-.78-.077,3.812,3.812,0,0,0-2.4.8A5.245,5.245,0,0,0,221,13.2V23.429Z"
        transform="translate(-0.908 -1.076)"/>
  <path class="cls-1"
        d="M232.785,25.817l.98-2.419L228.008,8.486h2.48l4.533,12.279,4.806-12.279h2.481l-7.411,18a5.878,5.878,0,0,1-1.668,2.558,4.16,4.16,0,0,1-2.619.75,5.553,5.553,0,0,1-.672-.046,4.492,4.492,0,0,1-.766-.169v-1.99a5.764,5.764,0,0,0,.72.107c.172.01.34.016.5.016a2.239,2.239,0,0,0,1.424-.445A3.376,3.376,0,0,0,232.785,25.817Z"
        transform="translate(-0.908 -1.076)"/>
</svg>
