<?xml version="1.0" encoding="utf-8"?>
<!DOCTYPE svg PUBLIC "-//W3C//DTD SVG 1.1//EN"
  "http://www.w3.org/Graphics/SVG/1.1/DTD/svg11.dtd">
<svg version="1.1" id="Layer_1" xmlns="http://www.w3.org/2000/svg"
     xmlns:xlink="http://www.w3.org/1999/xlink" x="0px" y="0px"
     width="383.5px" height="32px" viewBox="0 0 383.5 32"
     enable-background="new 0 0 383.5 32" xml:space="preserve">
  <style type="text/css">.st0{fill:#ffffff; stroke:#ffffff}</style>
  <g>
    <path class="st0" d="M2.863,14.178v9.842H1.258V1.431h5.477c2.854,0,4.963,0.518,6.327,1.553c1.364,1.036,2.046,2.593,2.046,4.674
      c0,1.514-0.407,2.792-1.22,3.832s-2.048,1.787-3.706,2.24l6.248,10.29h-1.92l-5.934-9.842H2.863z M2.863,12.818h4.391
      c1.941,0,3.447-0.425,4.517-1.274c1.07-0.85,1.605-2.104,1.605-3.762c0-1.72-0.525-2.972-1.574-3.755
      c-1.049-0.783-2.76-1.174-5.131-1.174H2.863V12.818z"/>
    <path class="st0" d="M26.926,24.328c-2.487,0-4.425-0.752-5.815-2.256s-2.085-3.609-2.085-6.319c0-2.678,0.671-4.823,2.014-6.435
      C22.383,7.707,24.193,6.9,26.47,6.9c2.015,0,3.604,0.69,4.769,2.07s1.747,3.255,1.747,5.624v1.236H20.663
      c0.021,2.308,0.569,4.069,1.645,5.285c1.075,1.215,2.615,1.822,4.619,1.822c0.976,0,1.833-0.066,2.573-0.2
      c0.74-0.134,1.676-0.423,2.81-0.865v1.391c-0.965,0.411-1.857,0.692-2.676,0.842S27.912,24.328,26.926,24.328z M26.47,8.26
      c-1.647,0-2.969,0.533-3.966,1.599c-0.997,1.066-1.58,2.604-1.747,4.612h10.576c0-1.947-0.43-3.469-1.291-4.566
      C29.182,8.809,27.991,8.26,26.47,8.26z"/>
    <path class="st0" d="M43.97,6.9c1.238,0,2.308,0.222,3.21,0.665s1.71,1.2,2.424,2.271h0.094c-0.063-1.298-0.094-2.57-0.094-3.816v-6.041h1.542
      V24.02h-1.023l-0.394-2.564h-0.126c-1.301,1.916-3.169,2.873-5.603,2.873c-2.361,0-4.166-0.721-5.414-2.162
      c-1.249-1.442-1.873-3.544-1.873-6.304c0-2.905,0.619-5.125,1.857-6.659C39.81,7.668,41.609,6.9,43.97,6.9z M43.97,8.291
      c-1.868,0-3.271,0.644-4.21,1.931s-1.408,3.157-1.408,5.608c0,4.759,1.883,7.138,5.65,7.138c1.93,0,3.347-0.551,4.249-1.652
      c0.902-1.103,1.354-2.921,1.354-5.455v-0.263c0-2.596-0.443-4.463-1.33-5.601C47.388,8.86,45.953,8.291,43.97,8.291z"/>
    <path class="st0"
          d="M82.324,24.02h-1.621V12.911h-13.44V24.02h-1.605V1.431h1.605v10.027h13.44V1.431h1.621V24.02z"/>
    <path class="st0" d="M98.833,24.02l-0.394-2.658h-0.126c-0.86,1.082-1.745,1.848-2.652,2.295c-0.908,0.448-1.98,0.672-3.218,0.672
      c-1.679,0-2.985-0.422-3.919-1.267s-1.4-2.014-1.4-3.507c0-1.639,0.695-2.91,2.085-3.816c1.39-0.907,3.402-1.385,6.036-1.437
      l3.258-0.093v-1.112c0-1.597-0.331-2.802-0.992-3.616C96.85,8.667,95.785,8.26,94.316,8.26c-1.584,0-3.226,0.433-4.926,1.298
      l-0.583-1.329c1.878-0.865,3.735-1.298,5.571-1.298c1.878,0,3.281,0.479,4.21,1.437s1.393,2.452,1.393,4.48V24.02H98.833z
       M92.538,22.938c1.826,0,3.266-0.512,4.32-1.537c1.054-1.024,1.582-2.449,1.582-4.271v-1.653l-2.99,0.124
      c-2.403,0.113-4.115,0.481-5.139,1.104c-1.023,0.624-1.534,1.595-1.534,2.913c0,1.051,0.328,1.867,0.983,2.448
      C90.416,22.646,91.342,22.938,92.538,22.938z"/>
    <path class="st0" d="M110.038,22.969c0.986,0,1.847-0.082,2.581-0.247v1.235c-0.755,0.248-1.626,0.371-2.612,0.371
      c-1.511,0-2.626-0.396-3.344-1.189c-0.719-0.793-1.078-2.039-1.078-3.738V8.554h-2.534V7.657l2.534-0.695l0.787-3.801h0.802v4.063
      h5.021v1.329h-5.021v10.63c0,1.287,0.231,2.24,0.693,2.858C108.328,22.66,109.052,22.969,110.038,22.969z"/>
    <path class="st0" d="M132.009,24.328c-2.634,0-4.554-0.968-5.76-2.904h-0.11l0.047,1.298c0.042,0.763,0.063,1.597,0.063,2.503v6.396h-1.558
      V7.225h1.322l0.299,2.395h0.094c1.175-1.813,3.053-2.719,5.634-2.719c2.308,0,4.068,0.744,5.28,2.232
      c1.211,1.489,1.817,3.654,1.817,6.497c0,2.761-0.637,4.9-1.912,6.42C135.951,23.568,134.212,24.328,132.009,24.328z
       M131.977,22.969c1.752,0,3.108-0.639,4.068-1.916s1.44-3.064,1.44-5.361c0-4.934-1.815-7.401-5.445-7.401
      c-1.994,0-3.457,0.538-4.391,1.614c-0.934,1.077-1.401,2.83-1.401,5.261v0.494c0,2.626,0.449,4.501,1.346,5.625
      S129.952,22.969,131.977,22.969z"/>
    <path class="st0" d="M150.61,6.9c0.724,0,1.501,0.072,2.329,0.216l-0.299,1.468c-0.714-0.175-1.453-0.263-2.219-0.263
      c-1.459,0-2.654,0.608-3.588,1.823c-0.935,1.215-1.401,2.75-1.401,4.604v9.271h-1.558V7.225h1.322l0.156,3.028h0.11
      c0.703-1.236,1.453-2.104,2.251-2.603C148.512,7.15,149.477,6.9,150.61,6.9z"/>
    <path class="st0" d="M170.566,15.599c0,2.74-0.677,4.879-2.03,6.419s-3.222,2.31-5.603,2.31c-1.5,0-2.822-0.355-3.966-1.065
      c-1.144-0.711-2.021-1.73-2.628-3.06c-0.609-1.328-0.913-2.863-0.913-4.604c0-2.74,0.677-4.875,2.03-6.404
      c1.354-1.53,3.211-2.294,5.57-2.294c2.351,0,4.195,0.775,5.533,2.325C169.897,10.776,170.566,12.9,170.566,15.599z
       M157.063,15.599c0,2.307,0.517,4.108,1.55,5.4s2.494,1.938,4.383,1.938s3.35-0.646,4.383-1.938s1.551-3.093,1.551-5.4
      c0-2.318-0.521-4.115-1.566-5.393c-1.043-1.277-2.51-1.916-4.398-1.916s-3.344,0.636-4.367,1.908S157.063,13.271,157.063,15.599z"
    />
    <path class="st0" d="M181.566,6.9c1.238,0,2.309,0.222,3.211,0.665s1.71,1.2,2.424,2.271h0.094c-0.062-1.298-0.094-2.57-0.094-3.816v-6.041
      h1.543V24.02h-1.023l-0.394-2.564h-0.126c-1.301,1.916-3.169,2.873-5.603,2.873c-2.36,0-4.165-0.721-5.414-2.162
      c-1.249-1.442-1.872-3.544-1.872-6.304c0-2.905,0.618-5.125,1.856-6.659C177.406,7.668,179.206,6.9,181.566,6.9z M181.566,8.291
      c-1.867,0-3.271,0.644-4.209,1.931c-0.939,1.288-1.408,3.157-1.408,5.608c0,4.759,1.883,7.138,5.649,7.138
      c1.931,0,3.347-0.551,4.249-1.652c0.902-1.103,1.354-2.921,1.354-5.455v-0.263c0-2.596-0.443-4.463-1.33-5.601
      C184.984,8.86,183.55,8.291,181.566,8.291z"/>
    <path class="st0" d="M195.842,7.225v10.877c0,1.689,0.361,2.918,1.086,3.686c0.724,0.768,1.846,1.15,3.367,1.15
      c2.035,0,3.533-0.504,4.493-1.514s1.44-2.652,1.44-4.929V7.225h1.542V24.02h-1.321l-0.283-2.317h-0.096
      c-1.111,1.751-3.09,2.626-5.933,2.626c-3.893,0-5.839-2.044-5.839-6.133V7.225H195.842z"/>
    <path class="st0" d="M220.329,24.328c-2.444,0-4.359-0.757-5.744-2.271c-1.385-1.514-2.077-3.625-2.077-6.334c0-2.781,0.719-4.947,2.156-6.497
      s3.404-2.325,5.901-2.325c1.479,0,2.896,0.252,4.249,0.757l-0.425,1.36c-1.479-0.484-2.765-0.726-3.856-0.726
      c-2.098,0-3.688,0.636-4.768,1.908c-1.081,1.272-1.621,3.103-1.621,5.493c0,2.266,0.54,4.041,1.621,5.322
      c1.08,1.283,2.591,1.924,4.532,1.924c1.553,0,2.995-0.272,4.328-0.818v1.422C223.535,24.066,222.103,24.328,220.329,24.328z"/>
    <path class="st0" d="M233.328,22.969c0.986,0,1.848-0.082,2.582-0.247v1.235c-0.756,0.248-1.627,0.371-2.613,0.371
      c-1.51,0-2.625-0.396-3.344-1.189s-1.078-2.039-1.078-3.738V8.554h-2.533V7.657l2.533-0.695l0.787-3.801h0.803v4.063h5.02v1.329
      h-5.02v10.63c0,1.287,0.23,2.24,0.692,2.858S232.342,22.969,233.328,22.969z"/>
    <path class="st0" d="M254.244,6.9c1.238,0,2.309,0.222,3.211,0.665s1.71,1.2,2.424,2.271h0.094c-0.062-1.298-0.094-2.57-0.094-3.816v-6.041
      h1.543V24.02h-1.023l-0.394-2.564h-0.126c-1.301,1.916-3.169,2.873-5.603,2.873c-2.36,0-4.165-0.721-5.414-2.162
      c-1.249-1.442-1.872-3.544-1.872-6.304c0-2.905,0.618-5.125,1.856-6.659C250.084,7.668,251.884,6.9,254.244,6.9z M254.244,8.291
      c-1.867,0-3.271,0.644-4.209,1.931c-0.939,1.288-1.408,3.157-1.408,5.608c0,4.759,1.883,7.138,5.649,7.138
      c1.931,0,3.347-0.551,4.249-1.652c0.902-1.103,1.354-2.921,1.354-5.455v-0.263c0-2.596-0.443-4.463-1.33-5.601
      C257.662,8.86,256.228,8.291,254.244,8.291z"/>
    <path class="st0" d="M266.945,2.559c0-0.989,0.33-1.483,0.991-1.483c0.325,0,0.579,0.129,0.764,0.386c0.183,0.257,0.275,0.623,0.275,1.097
      c0,0.464-0.093,0.83-0.275,1.097c-0.185,0.268-0.438,0.402-0.764,0.402C267.275,4.058,266.945,3.558,266.945,2.559z
       M268.724,24.02h-1.558V7.225h1.558V24.02z"/>
    <path class="st0" d="M285.06,19.646c0,1.504-0.583,2.66-1.747,3.469s-2.816,1.213-4.957,1.213c-2.287,0-4.103-0.345-5.445-1.035v-1.652
      c1.721,0.844,3.535,1.267,5.445,1.267c1.689,0,2.972-0.275,3.848-0.827c0.876-0.551,1.314-1.284,1.314-2.201
      c0-0.845-0.35-1.555-1.047-2.133c-0.697-0.576-1.844-1.143-3.439-1.699c-1.709-0.607-2.91-1.13-3.604-1.568
      c-0.692-0.438-1.215-0.932-1.566-1.483c-0.352-0.551-0.526-1.223-0.526-2.016c0-1.257,0.538-2.25,1.612-2.982
      c1.076-0.731,2.579-1.097,4.51-1.097c1.846,0,3.599,0.34,5.256,1.02l-0.582,1.391c-1.679-0.68-3.236-1.02-4.674-1.02
      c-1.396,0-2.502,0.227-3.32,0.68c-0.818,0.454-1.229,1.082-1.229,1.885c0,0.876,0.317,1.576,0.953,2.102
      c0.635,0.525,1.875,1.112,3.721,1.761c1.543,0.546,2.666,1.038,3.369,1.476c0.702,0.438,1.229,0.935,1.581,1.491
      C284.884,18.241,285.06,18.896,285.06,19.646z"/>
    <path class="st0" d="M296.297,24.328c-2.445,0-4.359-0.757-5.744-2.271c-1.385-1.514-2.078-3.625-2.078-6.334c0-2.781,0.719-4.947,2.156-6.497
      s3.404-2.325,5.902-2.325c1.479,0,2.895,0.252,4.248,0.757l-0.424,1.36c-1.48-0.484-2.766-0.726-3.856-0.726
      c-2.099,0-3.688,0.636-4.769,1.908s-1.621,3.103-1.621,5.493c0,2.266,0.541,4.041,1.621,5.322c1.08,1.283,2.592,1.924,4.533,1.924
      c1.553,0,2.995-0.272,4.328-0.818v1.422C299.502,24.066,298.07,24.328,296.297,24.328z"/>
    <path class="st0" d="M318.928,15.599c0,2.74-0.677,4.879-2.03,6.419s-3.221,2.31-5.603,2.31c-1.501,0-2.822-0.355-3.966-1.065
      c-1.144-0.711-2.021-1.73-2.628-3.06c-0.609-1.328-0.913-2.863-0.913-4.604c0-2.74,0.677-4.875,2.03-6.404
      c1.354-1.53,3.21-2.294,5.571-2.294c2.35,0,4.193,0.775,5.531,2.325S318.928,12.9,318.928,15.599z M305.425,15.599
      c0,2.307,0.517,4.108,1.55,5.4s2.495,1.938,4.383,1.938c1.889,0,3.35-0.646,4.384-1.938c1.033-1.292,1.55-3.093,1.55-5.4
      c0-2.318-0.522-4.115-1.566-5.393c-1.044-1.277-2.51-1.916-4.398-1.916s-3.344,0.636-4.367,1.908S305.425,13.271,305.425,15.599z"
    />
    <path class="st0" d="M327.411,24.02l-6.61-16.795h1.605l4.422,11.418c0.588,1.463,1.028,2.74,1.322,3.832h0.095
      c0.43-1.4,0.87-2.688,1.321-3.863l4.423-11.387h1.605l-6.61,16.795H327.411z"/>
    <path class="st0" d="M345.367,24.328c-2.486,0-4.425-0.752-5.815-2.256s-2.085-3.609-2.085-6.319c0-2.678,0.671-4.823,2.015-6.435
      c1.343-1.612,3.152-2.418,5.429-2.418c2.015,0,3.604,0.69,4.769,2.07c1.165,1.38,1.747,3.255,1.747,5.624v1.236h-12.322
      c0.021,2.308,0.568,4.069,1.645,5.285c1.075,1.215,2.615,1.822,4.619,1.822c0.976,0,1.833-0.066,2.573-0.2
      c0.739-0.134,1.676-0.423,2.809-0.865v1.391c-0.965,0.411-1.856,0.692-2.675,0.842S346.354,24.328,345.367,24.328z M344.91,8.26
      c-1.646,0-2.969,0.533-3.966,1.599c-0.997,1.066-1.579,2.604-1.747,4.612h10.576c0-1.947-0.43-3.469-1.29-4.566
      C347.623,8.809,346.432,8.26,344.91,8.26z"/>
    <path class="st0" d="M362.884,6.9c0.724,0,1.5,0.072,2.329,0.216l-0.3,1.468c-0.713-0.175-1.453-0.263-2.219-0.263
      c-1.458,0-2.654,0.608-3.588,1.823c-0.935,1.215-1.401,2.75-1.401,4.604v9.271h-1.558V7.225h1.322l0.157,3.028h0.11
      c0.702-1.236,1.453-2.104,2.25-2.603C360.785,7.15,361.75,6.9,362.884,6.9z"/>
    <path class="st0" d="M365.826,7.225h1.605l3.619,9.425c1.102,2.895,1.8,4.847,2.094,5.856h0.094c0.441-1.329,1.159-3.312,2.156-5.949
      l3.62-9.332h1.605l-7.665,19.514c-0.619,1.586-1.138,2.658-1.558,3.215c-0.42,0.556-0.91,0.973-1.472,1.251
      s-1.24,0.417-2.038,0.417c-0.598,0-1.265-0.107-1.999-0.324v-1.329c0.608,0.165,1.265,0.247,1.968,0.247
      c0.535,0,1.007-0.123,1.416-0.371c0.409-0.246,0.779-0.631,1.109-1.15c0.331-0.521,0.714-1.344,1.149-2.473
      c0.436-1.127,0.716-1.861,0.842-2.201L365.826,7.225z"/>
  </g>
</svg>
