<?xml version="1.0" encoding="UTF-8"?><svg id="c" xmlns="http://www.w3.org/2000/svg" width="1080" height="1080" xmlns:xlink="http://www.w3.org/1999/xlink" viewBox="0 0 1080 1080"><title>Security 2</title>
<desc>security, secure, private, privacy, clouds, lines, nodes, monitor, code</desc>
<metadata><?xpacket begin="﻿" id="W5M0MpCehiHzreSzNTczkc9d"?>
<x:xmpmeta xmlns:x="adobe:ns:meta/" x:xmptk="Adobe XMP Core 8.0-c001 1.000000, 0000/00/00-00:00:00        ">
   <rdf:RDF xmlns:rdf="http://www.w3.org/1999/02/22-rdf-syntax-ns#">
      <rdf:Description rdf:about=""
            xmlns:xmp="http://ns.adobe.com/xap/1.0/"
            xmlns:tiff="http://ns.adobe.com/tiff/1.0/"
            xmlns:dc="http://purl.org/dc/elements/1.1/">
         <xmp:rhcc-effective-on>2024-06-10T18:10:16.484Z</xmp:rhcc-effective-on>
         <xmp:rhcc-rights-restricted>no</xmp:rhcc-rights-restricted>
         <xmp:brand-content-subtype>Illustration</xmp:brand-content-subtype>
         <xmp:rhcc-metadata-complete-moderator>pending</xmp:rhcc-metadata-complete-moderator>
         <xmp:rhcc-translation-id>TRAb01dbfcb-2715-4d5b-b62e-9e38397a99b9</xmp:rhcc-translation-id>
         <xmp:brand-content-type>Illustration</xmp:brand-content-type>
         <xmp:CreateDate>2024-06-10T18:10:16.484Z</xmp:CreateDate>
         <xmp:rhcc-aspect-ratio>square</xmp:rhcc-aspect-ratio>
         <xmp:rhcc-derivative-id>DERb01dbfcb-2715-4d5b-b62e-9e38397a99b9</xmp:rhcc-derivative-id>
         <xmp:rhcc-effective-on-set-on-upload>true</xmp:rhcc-effective-on-set-on-upload>
         <xmp:rhcc-uploaded-by>alwilker@redhat.com</xmp:rhcc-uploaded-by>
         <xmp:rhcc-metadata-complete-uploader>pending</xmp:rhcc-metadata-complete-uploader>
         <xmp:rhcc-file-last-modified>2024-07-13T00:19:35.362Z</xmp:rhcc-file-last-modified>
         <xmp:rhcc-audience>rhcc-audience:internal</xmp:rhcc-audience>
         <xmp:rhcc-notify-portal-subscribers-on-change>yes</xmp:rhcc-notify-portal-subscribers-on-change>
         <xmp:brand-colorway>
            <rdf:Bag>
               <rdf:li>colorway:black</rdf:li>
               <rdf:li>colorway:red</rdf:li>
            </rdf:Bag>
         </xmp:brand-colorway>
         <tiff:ImageLength>1080</tiff:ImageLength>
         <tiff:ImageWidth>1080</tiff:ImageWidth>
         <dc:format>image/svg+xml</dc:format>
         <dc:modified>2024-06-10T18:11:00.239Z</dc:modified>
         <dc:description>
            <rdf:Alt>
               <rdf:li xml:lang="x-default">security, secure, private, privacy, clouds, lines, nodes, monitor, code</rdf:li>
            </rdf:Alt>
         </dc:description>
         <dc:title>
            <rdf:Alt>
               <rdf:li xml:lang="x-default">Security 2</rdf:li>
            </rdf:Alt>
         </dc:title>
      </rdf:Description>
   </rdf:RDF>
</x:xmpmeta>
                                                                                                    
                                                                                                    
                                                                                                    
                                                                                                    
                                                                                                    
                                                                                                    
                                                                                                    
                                                                                                    
                                                                                                    
                                                                                                    
                                                                                                    
                                                                                                    
                                                                                                    
                                                                                                    
                                                                                                    
                                                                                                    
                                                                                                    
                                      
<?xpacket end="w"?></metadata>
<defs><style>.bo,.bp,.bq,.br,.bs,.bt{fill:none;}.bo,.bq,.br,.bs,.bu{stroke-miterlimit:10;}.bo,.bu{stroke:#e0e0e0;}.bo,.bu,.bt{stroke-width:3px;}.bp,.bv,.bw,.bx,.by,.bz,.ca,.cb,.cc{stroke-width:0px;}.bq{stroke:#fff;}.bq,.br{stroke-width:2.5px;}.br,.bt{stroke:#000;}.bs{stroke:#707070;stroke-width:2px;}.cd{clip-path:url(#p);}.ce{clip-path:url(#j);}.cf{clip-path:url(#x);}.cg{clip-path:url(#f);}.ch{clip-path:url(#ag);}.ci{clip-path:url(#am);}.cj{clip-path:url(#bf);}.bu,.cb{fill:#fff;}.bw{fill:#f2f2f2;}.bx{fill:#707070;}.by{fill:#a3a3a3;}.bz{fill:#c7c7c7;}.ca{fill:#e0e0e0;}.cc{fill:#e00;}.bt{stroke-linecap:round;stroke-linejoin:round;}</style><clipPath id="f"><path id="g" class="bp" d="m1008.7205,481.3772c-.514-9.0975-1.2101-18.2078-2.0621-27.3339-3.8765-41.5257-16.7827-82.0344-37.5814-118.1806-41.1003-71.4283-111.9837-123.6626-192.6067-141.0516-20.0795-4.3308-40.6116-6.5131-61.1518-6.5475-25.1399-.0421-49.5423,3.0823-72.8317,8.9961-79.7049,20.239-163.8165,16.8362-240.7505-12.2094-28.9346-10.924-60.2963-16.902-93.0558-16.902-145.5731,0-263.5837,118.0105-263.5837,263.5836,0,48.6831,13.2024,94.2794,36.2188,133.4115,21.2803,36.1805,31.4738,77.6462,30.6048,119.6119-.0282,1.3615-.044,2.726-.0472,4.0935-.2847,120.672,98.2589,219.4595,218.9312,219.4591,29.6156,0,57.8563-5.8813,83.6191-16.5392,78.2935-32.3896,165.5244-33.6827,245.7007-6.2837,20.8049,7.1097,43.117,10.9678,66.3347,10.9682,161.8829.0019,255.7735-164.8981,277.5667-306.8391,5.4724-35.6418,6.727-72.2711,4.6948-108.2368Z"/></clipPath><clipPath id="j"><path class="bp" d="m1008.7205,481.3772c-.514-9.0975-1.2101-18.2078-2.0621-27.3339-3.8765-41.5257-16.7827-82.0344-37.5814-118.1806-41.1003-71.4283-111.9837-123.6626-192.6067-141.0516-20.0795-4.3308-40.6116-6.5131-61.1518-6.5475-25.1399-.0421-49.5423,3.0823-72.8317,8.9961-79.7049,20.239-163.8165,16.8362-240.7505-12.2094-28.9346-10.924-60.2963-16.902-93.0558-16.902-145.5731,0-263.5837,118.0105-263.5837,263.5836,0,48.6831,13.2024,94.2794,36.2188,133.4115,21.2803,36.1805,31.4738,77.6462,30.6048,119.6119-.0282,1.3615-.044,2.726-.0472,4.0935-.2847,120.672,98.2589,219.4595,218.9312,219.4591,29.6156,0,57.8563-5.8813,83.6191-16.5392,78.2935-32.3896,165.5244-33.6827,245.7007-6.2837,20.8049,7.1097,43.117,10.9678,66.3347,10.9682,161.8829.0019,255.7735-164.8981,277.5667-306.8391,5.4724-35.6418,6.727-72.2711,4.6948-108.2368Z"/></clipPath><clipPath id="p"><path class="bp" d="m257.0695,483.4883c-8.3974,0-16.4976,1.2681-24.1266,3.6129-13.1085-24.6523-35.3828-43.683-62.278-52.5486v212.9499h86.4046c45.2914,0,82.0071-36.7158,82.0071-82.0068s-36.7158-82.0075-82.0071-82.0075Z"/></clipPath><clipPath id="x"><path class="bp" d="m275.0238,343.043h-76.5268c-6.6545,0-12.0487,5.3944-12.0487,12.0488v48.8076c37.7933-6.1264,69.9521-29.0448,88.5756-60.8564Z"/></clipPath><clipPath id="ag"><path class="bp" d="m603.7572,769.1962c-12.7387-5.6627-20.9481-18.296-20.9481-32.2366v-76.5711h-122.9809v76.5711c0,13.9406-8.2091,26.5739-20.9478,32.2366l-35.2333,15.0967,60.0816.0589h115.1801l60.0816-.0589-35.2333-15.0967Z"/></clipPath><clipPath id="am"><rect class="bp" x="206.0516" y="324.7514" width="626.6346" height="395.3579" rx="9.7686" ry="9.7686"/></clipPath><clipPath id="bf"><circle id="bg" class="bp" cx="898.7527" cy="785.4462" r="141.2473"/></clipPath></defs><path id="d" class="ca" d="m1008.7205,481.3772c-.514-9.0975-1.2101-18.2078-2.0621-27.3339-3.8765-41.5257-16.7827-82.0344-37.5814-118.1806-41.1003-71.4283-111.9837-123.6626-192.6067-141.0516-20.0795-4.3308-40.6116-6.5131-61.1518-6.5475-25.1399-.0421-49.5423,3.0823-72.8317,8.9961-79.7049,20.239-163.8165,16.8362-240.7505-12.2094-28.9346-10.924-60.2963-16.902-93.0558-16.902-145.5731,0-263.5837,118.0105-263.5837,263.5836,0,48.6831,13.2024,94.2794,36.2188,133.4115,21.2803,36.1805,31.4738,77.6462,30.6048,119.6119-.0282,1.3615-.044,2.726-.0472,4.0935-.2847,120.672,98.2589,219.4595,218.9312,219.4591,29.6156,0,57.8563-5.8813,83.6191-16.5392,78.2935-32.3896,165.5244-33.6827,245.7007-6.2837,20.8049,7.1097,43.117,10.9678,66.3347,10.9682,161.8829.0019,255.7735-164.8981,277.5667-306.8391,5.4724-35.6418,6.727-72.2711,4.6948-108.2368Z"/><g id="e"><g class="cg"><path id="h" class="cb" d="m952.3801,588.6069c-5.6879,0-11.1746.8588-16.3421,2.4471-12.4301-23.3763-37.0235-39.2996-65.3455-39.2996-31.5041,0-58.3906,19.7023-69.0559,47.4503-20.1349.6703-37.2721,13.1686-44.6676,30.7802-2.8159-.7212-5.7672-1.1054-8.8084-1.1054-19.5566,0-35.4106,15.8538-35.4106,35.4108s15.854,35.4109,35.4106,35.4109c9.6816,0,189.7429,0,204.2195,0,30.6779,0,55.5471-24.8693,55.5471-55.547s-24.8692-55.5472-55.5471-55.5472Z"/></g></g><g id="i"><g class="ce"><path id="k" class="bz" d="m787.9953,281.5416c8.8019,0,17.2924,1.329,25.289,3.7868,19.2352-36.1742,57.293-60.8151,101.1206-60.8151,48.7518,0,90.3581,30.4889,106.8623,73.4282,31.1583,1.0372,57.6776,20.378,69.1221,47.6315,4.3576-1.116,8.9246-1.7106,13.6308-1.7106,30.2633,0,54.797,24.5334,54.797,54.7973,0,30.2639-24.5337,54.7975-54.797,54.7975-14.982,0-293.6225,0-316.0247,0-47.4733,0-85.9578-38.4846-85.9578-85.9577,0-47.4731,38.4845-85.958,85.9578-85.958Z"/><g id="l"><path id="m" class="cb" d="m764.2548,263.2501c8.8019,0,17.2924,1.329,25.289,3.7868,19.2352-36.1742,57.293-60.8151,101.1206-60.8151,48.7518,0,90.3581,30.4889,106.8623,73.4282,31.1583,1.0372,57.6776,20.378,69.1221,47.6315,4.3576-1.116,8.9246-1.7106,13.6308-1.7106,30.2633,0,54.797,24.5334,54.797,54.7973,0,30.2639-24.5337,54.7975-54.797,54.7975-14.982,0-293.6225,0-316.0247,0-47.4733,0-85.9578-38.4846-85.9578-85.9577,0-47.4731,38.4845-85.958,85.9578-85.958Z"/></g><path id="n" class="bz" d="m293.7761,505.7315c-8.3974,0-16.4977,1.2679-24.1267,3.6128-18.3512-34.5116-54.6597-58.02-96.473-58.02-46.5111,0-86.2052,29.0876-101.9508,70.0534-29.7263.9895-55.0267,19.4414-65.9452,45.4424-4.1573-1.0647-8.5144-1.632-13.0043-1.632-28.8724,0-52.2785,23.4058-52.2785,52.2788s23.4061,52.279,52.2785,52.279h301.5001c45.2914,0,82.0071-36.7158,82.0071-82.007s-36.7157-82.0073-82.0071-82.0073Z"/><path class="cb" d="m257.0695,483.4884c-8.3974,0-16.4977,1.2679-24.1267,3.6128-18.3512-34.5116-54.6597-58.02-96.473-58.02-46.5111,0-86.2052,29.0876-101.9508,70.0534-29.7263.9895-55.0267,19.4414-65.9452,45.4424-4.1573-1.0647-8.5144-1.632-13.0043-1.632-28.8724,0-52.2785,23.4058-52.2785,52.2788s23.4061,52.279,52.2785,52.279h301.5001c45.2914,0,82.0071-36.7158,82.0071-82.007,0-45.2912-36.7157-82.0073-82.0071-82.0073Z"/><rect id="o" class="bz" x="186.448" y="343.043" width="626.6346" height="395.3579" rx="9.7686" ry="9.7686"/><g class="cd"><rect class="by" x="186.448" y="343.043" width="626.6346" height="395.3579" rx="9.7686" ry="9.7686"/></g><line id="q" class="bt" x1="-72.4024" y1="803.4023" x2="1101.9289" y2="803.4023"/><path class="bz" d="m507.5825,212.1569l-181.6341,51.5502v188.9888c0,27.8866,5.7081,55.5046,16.9489,81.0254,57.4321,130.3925,164.6852,125.8172,164.6852,125.8172,0,0,108.5991,4.6327,165.7571-128.28,10.6199-24.6952,15.877-51.3645,15.877-78.2463v-189.3049s-181.6341-51.5502-181.6341-51.5502Z"/></g></g><g id="r"><path id="s" class="bz" d="m158.3384,538.6988c0-11.5695-9.3788-20.9485-20.9485-20.9485s-20.9485,9.379-20.9485,20.9485c0,8.1549,4.6697,15.2042,11.4718,18.6651v20.738c0,5.2122,4.2644,9.4767,9.4767,9.4767s9.4767-4.2645,9.4767-9.4767v-20.7379c6.8021-3.4609,11.4718-10.5102,11.4718-18.6651Z"/></g><circle id="t" class="bu" cx="166.1162" cy="279.4228" r="126.1162"/><path id="u" class="by" d="m275.0238,343.043h-76.5268c-6.6545,0-12.0487,5.3944-12.0487,12.0488v51.4317c37.7933-6.1264,69.9521-31.6689,88.5756-63.4805Z"/><circle id="v" class="br" cx="165.9151" cy="279.3854" r="94.8412"/><g id="w"><g class="cf"><circle class="bq" cx="165.9151" cy="279.3854" r="94.8412"/></g></g><g id="y"><circle id="z" class="ca" cx="105.9965" cy="206.4568" r="17.6586"/><circle id="aa" class="ca" cx="109.5884" cy="355.52" r="17.6586"/><circle id="ab" class="ca" cx="255.0155" cy="249.0372" r="17.6586"/><circle class="cc" cx="166.1162" cy="279.4228" r="36.8513"/><path id="ac" class="bv" d="m149.6431,295.8959c-12.7531-12.7533-14.1952-32.524-4.3449-46.8759-1.8432,1.2651-3.6017,2.707-5.2396,4.345-14.3916,14.3913-14.3916,37.7242,0,52.1155,14.391,14.3914,37.7241,14.3914,52.1154,0,1.6378-1.638,3.0799-3.3965,4.3449-5.2398-14.3516,9.8503-34.1224,8.4086-46.8759-4.3448Z"/></g><rect id="ad" class="by" x="403.6372" y="784.2928" width="235.3532" height="20.5801"/><path id="ae" class="cb" d="m603.7573,769.1961c-12.7387-5.6627-20.9481-18.296-20.9481-32.2366v-76.5712h-122.9809v76.5712c0,13.9406-8.2091,26.5739-20.9478,32.2366l-35.2333,15.0967,60.0816.0589h115.1802l60.0816-.0589-35.2333-15.0967Z"/><g id="af"><g class="ch"><path class="by" d="m583.1441,716.1618c-41.2709.0741-82.5417.1485-123.8126.2226-.0217,5.5793-.0434,11.1585-.0651,16.7378-.0104,2.6678-.4917,4.7909-1,7.1375-.4162,1.9214-1.073,4.8733-2.6906,8.4357-.8262,1.8196-2.0954,4.2216-4.0266,6.8209,2.5297-3.6064,6.762-8.5976,13.3186-12.3635,7.9219-4.5501,15.6647-5.2629,21.0352-5.4558,15.3694-.5521,50.6443-.6372,97.53.8059-.0999-.758-.2344-1.9407-.3062-3.3963-.0919-1.8639-.0355-3.2529-.0196-3.6903.071-1.9484.1089-6.1548.037-15.2545Z"/></g></g><g id="ah"><rect id="ai" class="bv" x="206.0516" y="324.7514" width="626.6346" height="395.3579" rx="9.7686" ry="9.7686"/><rect id="aj" class="cb" x="347.9312" y="235.3545" width="342.8756" height="574.1522" transform="translate(1041.7996 3.0616) rotate(90)"/><path id="ak" class="bw" d="m232.2929,456.3444v237.524h573.8135v-52.883c-243.8293-6.6815-521.2592-83.409-573.8135-184.641Z"/><g id="al"><g class="ci"><path id="an" class="by" d="m507.5825,212.1569l-181.6341,51.5502v188.9888c0,27.8866,5.7081,55.5046,16.9489,81.0254,57.4321,130.3925,164.6852,125.8172,164.6852,125.8172,0,0,108.5991,4.6327,165.7571-128.28,10.6199-24.6952,15.877-51.3645,15.877-78.2463v-189.3049s-181.6341-51.5502-181.6341-51.5502Z"/></g></g></g><g id="ao"><g id="ap"><polyline class="bs" points="298.366 395.9179 298.366 429.5146 333.0127 464.1613 519.3689 464.1613"/><path class="bx" d="m293.1024,395.9179c0-2.9067,2.3571-5.2637,5.2637-5.2637s5.2637,2.3571,5.2637,5.2637-2.3571,5.2636-5.2637,5.2636-5.2637-2.3571-5.2637-5.2636Z"/></g><g id="aq"><polyline class="bs" points="519.3689 497.0581 333.0127 497.0581 298.366 462.4114 263.5438 462.4114"/><path class="bx" d="m263.5438,457.1478c-2.9067,0-5.2637,2.357-5.2637,5.2637s2.3571,5.2637,5.2637,5.2637,5.2636-2.3571,5.2636-5.2637-2.357-5.2637-5.2636-5.2637Z"/></g><g id="ar"><polyline class="bs" points="298.366 648.9434 298.366 615.3466 333.0127 580.7 519.3689 580.7"/><circle class="bx" cx="298.366" cy="648.9434" r="5.2637"/></g><g id="as"><polyline class="bs" points="519.3689 547.8031 333.0127 547.8031 298.366 582.4498 263.5438 582.4498"/><path class="bx" d="m263.5438,577.1862c-2.9067,0-5.2637,2.3569-5.2637,5.2637s2.3571,5.2637,5.2637,5.2637,5.2636-2.3571,5.2636-5.2637-2.357-5.2637-5.2636-5.2637Z"/></g><g id="at"><polyline class="bs" points="737.7477 395.9179 737.7477 429.5146 703.1011 464.1613 519.3689 464.1613"/><path class="bx" d="m732.4841,395.9179c0-2.9067,2.357-5.2637,5.2637-5.2637s5.2637,2.3571,5.2637,5.2637-2.357,5.2636-5.2637,5.2636-5.2637-2.3571-5.2637-5.2636Z"/></g><g id="au"><polyline class="bs" points="519.3689 497.0581 703.1011 497.0581 737.7477 462.4114 775.1941 462.4114"/><path class="bx" d="m775.1941,467.6751c2.9067,0,5.2637-2.3571,5.2637-5.2637s-2.357-5.2637-5.2637-5.2637-5.2636,2.357-5.2636,5.2637,2.357,5.2637,5.2636,5.2637Z"/></g><g id="av"><polyline class="bs" points="737.7477 648.9434 737.7477 615.3466 703.1011 580.7 519.3689 580.7"/><circle class="bx" cx="737.7477" cy="648.9434" r="5.2637"/></g><g id="aw"><polyline class="bs" points="519.3689 547.8031 703.1011 547.8031 737.7477 582.4498 775.1941 582.4498"/><path class="bx" d="m775.1941,587.7135c2.9067,0,5.2637-2.3571,5.2637-5.2637s-2.357-5.2637-5.2637-5.2637-5.2636,2.3569-5.2636,5.2637,2.357,5.2637,5.2636,5.2637Z"/></g></g><g id="ax"><path id="ay" class="cc" d="m519.6132,195.1688l-180.201,51.1435v198.0775c0,27.6666,5.6631,55.0667,16.8152,80.3861,56.979,129.3637,163.3858,124.8245,163.3858,124.8245,0,0,107.7423,4.5962,164.4493-127.268,10.5361-24.5003,15.7517-50.9592,15.7517-77.629v-198.3911s-180.201-51.1435-180.201-51.1435Z"/><path id="az" class="cb" d="m519.6134,619.4901c-8.6353,0-70.7498.6877-117.0911-67.2478-22.2423-32.6068-33.6966-71.3726-33.6966-110.8431v-168.2787l150.7876-42.7952,150.7865,42.7952v168.2783c0,39.4698-11.4537,78.2349-33.6949,110.8416-46.3386,67.9345-108.4489,67.2496-117.0915,67.2496h0Z"/><path id="ba" class="bw" d="m519.6134,230.3254l-150.7876,42.7952v168.2787c0,39.4705,11.4543,78.2363,33.6966,110.8431,46.3413,67.9355,108.4558,67.2478,117.0911,67.2478h0V230.3254Z"/><g id="bb"><path class="cb" d="m519.6133,232.4044l148.7865,42.2276v166.7669c0,39.7928-11.5313,77.7315-33.3471,109.7147-18.9127,27.7269-42.6025,47.1925-70.4114,57.8562-10.1368,3.8871-26.0776,8.5206-44.4533,8.5206h-.317s-.2577-.0002-.2577-.0002h-.2586s-.3182.0002-.3182.0002c-18.374,0-34.3146-4.6337-44.4517-8.5209-27.8083-10.6636-51.4978-30.1285-70.4105-57.8542-21.817-31.9832-33.3488-69.9224-33.3488-109.7159v-166.7673l148.7876-42.2276m0-2.079l-150.7876,42.7952v168.2787c0,39.4705,11.4543,78.2363,33.6966,110.843,45.4221,66.5879,105.9975,67.248,116.5144,67.248.2128,0,.4055-.0002.5768-.0002.1709,0,.3624.0002.5746.0002,10.518,0,71.0947-.6587,116.5169-67.2499,22.2412-32.6067,33.6949-71.3718,33.6949-110.8416v-168.2783l-150.7865-42.7952h0Z"/></g></g><g id="bc"><circle id="bd" class="cb" cx="898.7527" cy="785.4462" r="141.2473"/><g id="be"><g class="cj"><polygon id="bh" class="bw" points="989.1267 800.5034 989.1267 729.7934 727.8528 729.7934 727.8528 805.4981 783.9368 805.4981 783.9368 875.6208 1113.7472 875.6208 1113.7472 800.5034 989.1267 800.5034"/><rect id="bi" class="bx" x="797.9802" y="791.3293" width="329.8106" height="70.248"/><rect id="bj" class="cc" x="741.8964" y="720.1093" width="261.2736" height="71.3453"/><g id="bk"><g id="bl"><path class="cb" d="m817.0491,846.4629v-3.9677h11.1466v-35.2056l-11.1466,4.9132v-4.1568l12.8474-5.6685h2.8342v40.1177h12.7221v3.9677h-28.4037Z"/><path class="cb" d="m873.1627,847.1555c-3.1498,0-5.9515-.9227-8.4075-2.7704-2.4572-1.8477-4.3772-4.4724-5.7636-7.8727-1.3852-3.4004-2.0778-7.4319-2.0778-12.0921,0-4.7012.6926-8.7436,2.0778-12.1235,1.3864-3.3787,3.3064-5.9925,5.7636-7.8402,2.456-1.8477,5.2577-2.7716,8.4075-2.7716,3.1896,0,6.0033.9239,8.4388,2.7716,2.4343,1.8477,4.3459,4.4615,5.7311,7.8402,1.3852,3.3799,2.0778,7.4222,2.0778,12.1235,0,4.6603-.6926,8.6918-2.0778,12.0921s-3.2968,6.025-5.7311,7.8727c-2.4355,1.8477-5.2493,2.7704-8.4388,2.7704Zm-11.6513-22.7353c0,2.6042.2409,4.9867.7239,7.1488.4818,2.1621,1.1431,4.0412,1.9838,5.6359l14.989-29.2216c-1.7225-1.4695-3.7376-2.2043-6.0455-2.2043-2.3524,0-4.3989.7661-6.1406,2.2982-1.7429,1.5334-3.0968,3.6955-4.0628,6.4863-.966,2.7933-1.4478,6.078-1.4478,9.8566Zm11.6513,18.6423c2.35,0,4.3977-.7661,6.1394-2.2994,1.7417-1.5321,3.0968-3.6943,4.0628-6.4863.9648-2.7921,1.4478-6.078,1.4478-9.8566,0-2.603-.2421-4.9855-.7239-7.1476-.483-2.1621-1.1443-4.0412-1.9838-5.6371l-14.989,29.2228c1.7213,1.4695,3.7364,2.2043,6.0467,2.2043Z"/><path class="cb" d="m915.6726,847.1555c-3.1498,0-5.9515-.9227-8.4075-2.7704-2.4572-1.8477-4.3772-4.4724-5.7636-7.8727-1.3852-3.4004-2.0778-7.4319-2.0778-12.0921,0-4.7012.6926-8.7436,2.0778-12.1235,1.3864-3.3787,3.3064-5.9925,5.7636-7.8402,2.456-1.8477,5.2577-2.7716,8.4075-2.7716,3.1896,0,6.0033.9239,8.4388,2.7716,2.4343,1.8477,4.3459,4.4615,5.7311,7.8402,1.3852,3.3799,2.0778,7.4222,2.0778,12.1235,0,4.6603-.6926,8.6918-2.0778,12.0921s-3.2968,6.025-5.7311,7.8727c-2.4355,1.8477-5.2493,2.7704-8.4388,2.7704Zm-11.6513-22.7353c0,2.6042.2409,4.9867.7239,7.1488.4818,2.1621,1.1431,4.0412,1.9838,5.6359l14.989-29.2216c-1.7225-1.4695-3.7376-2.2043-6.0455-2.2043-2.3524,0-4.3989.7661-6.1406,2.2982-1.7429,1.5334-3.0968,3.6955-4.0628,6.4863-.966,2.7933-1.4478,6.078-1.4478,9.8566Zm11.6513,18.6423c2.35,0,4.3977-.7661,6.1394-2.2994,1.7417-1.5321,3.0968-3.6943,4.0628-6.4863.9648-2.7921,1.4478-6.078,1.4478-9.8566,0-2.603-.2421-4.9855-.7239-7.1476-.483-2.1621-1.1443-4.0412-1.9838-5.6371l-14.989,29.2228c1.7213,1.4695,3.7364,2.2043,6.0467,2.2043Z"/><path class="cb" d="m944.5786,846.4629v-3.9677h11.1466v-35.2056l-11.1466,4.9132v-4.1568l12.8474-5.6685h2.8342v40.1177h12.7221v3.9677h-28.4037Z"/><path class="cb" d="m987.0896,846.4629v-3.9677h11.1466v-35.2056l-11.1466,4.9132v-4.1568l12.8474-5.6685h2.8342v40.1177h12.7221v3.9677h-28.4037Z"/></g><g id="bm"><path class="cb" d="m797.1734,778.2294c-3.1498,0-5.9515-.9227-8.4075-2.7704-2.4572-1.8477-4.3772-4.4724-5.7636-7.8727-1.3852-3.4004-2.0778-7.4319-2.0778-12.0921,0-4.7012.6926-8.7436,2.0778-12.1235,1.3864-3.3787,3.3064-5.9925,5.7636-7.8402,2.456-1.8477,5.2577-2.7716,8.4075-2.7716,3.1896,0,6.0033.9239,8.4388,2.7716,2.4343,1.8477,4.3459,4.4615,5.7311,7.8402,1.3852,3.3799,2.0778,7.4222,2.0778,12.1235,0,4.6603-.6926,8.6918-2.0778,12.0921-1.3852,3.4004-3.2968,6.025-5.7311,7.8727-2.4355,1.8477-5.2493,2.7704-8.4388,2.7704Zm-11.6513-22.7353c0,2.6042.2409,4.9867.7239,7.1488.4818,2.1621,1.1431,4.0412,1.9838,5.6359l14.989-29.2216c-1.7225-1.4695-3.7376-2.2043-6.0455-2.2043-2.3524,0-4.3989.7661-6.1406,2.2982-1.7429,1.5334-3.0968,3.6955-4.0628,6.4863-.966,2.7933-1.4478,6.078-1.4478,9.8566Zm11.6513,18.6423c2.35,0,4.3977-.7661,6.1394-2.2994,1.7417-1.5321,3.0968-3.6943,4.0628-6.4863.9648-2.7921,1.4478-6.078,1.4478-9.8566,0-2.603-.2421-4.9855-.7239-7.1476-.483-2.1621-1.1443-4.0412-1.9838-5.6371l-14.989,29.2228c1.7213,1.4695,3.7364,2.2043,6.0467,2.2043Z"/><path class="cb" d="m826.0794,777.5368v-3.9677h11.1466v-35.2056l-11.1466,4.9132v-4.1568l12.8474-5.6685h2.8342v40.1177h12.7221v3.9677h-28.4037Z"/><path class="cb" d="m868.5892,777.5368v-3.9677h11.1466v-35.2056l-11.1466,4.9132v-4.1568l12.8474-5.6685h2.8342v40.1177h12.7221v3.9677h-28.4037Z"/><path class="cb" d="m924.7028,778.2294c-3.1498,0-5.9515-.9227-8.4075-2.7704-2.4572-1.8477-4.3772-4.4724-5.7636-7.8727-1.3852-3.4004-2.0778-7.4319-2.0778-12.0921,0-4.7012.6926-8.7436,2.0778-12.1235,1.3864-3.3787,3.3064-5.9925,5.7636-7.8402,2.456-1.8477,5.2577-2.7716,8.4075-2.7716,3.1896,0,6.0033.9239,8.4388,2.7716,2.4343,1.8477,4.3459,4.4615,5.7311,7.8402,1.3852,3.3799,2.0778,7.4222,2.0778,12.1235,0,4.6603-.6926,8.6918-2.0778,12.0921s-3.2968,6.025-5.7311,7.8727c-2.4355,1.8477-5.2493,2.7704-8.4388,2.7704Zm-11.6513-22.7353c0,2.6042.2409,4.9867.7239,7.1488.4818,2.1621,1.1431,4.0412,1.9838,5.6359l14.989-29.2216c-1.7225-1.4695-3.7376-2.2043-6.0455-2.2043-2.3524,0-4.3989.7661-6.1406,2.2982-1.7429,1.5334-3.0968,3.6955-4.0628,6.4863-.966,2.7933-1.4478,6.078-1.4478,9.8566Zm11.6513,18.6423c2.35,0,4.3977-.7661,6.1394-2.2994,1.7417-1.5321,3.0968-3.6943,4.0628-6.4863.9648-2.7921,1.4478-6.078,1.4478-9.8566,0-2.603-.2421-4.9855-.7239-7.1476-.483-2.1621-1.1443-4.0412-1.9838-5.6371l-14.989,29.2228c1.7213,1.4695,3.7364,2.2043,6.0467,2.2043Z"/><path class="cb" d="m953.61,777.5368v-3.9677h11.1466v-35.2056l-11.1466,4.9132v-4.1568l12.8474-5.6685h2.8342v40.1177h12.7221v3.9677h-28.4037Z"/></g></g></g></g><circle id="bn" class="bo" cx="898.7527" cy="785.4462" r="141.2473"/></g></svg>