<?xml version="1.0" encoding="UTF-8" standalone="no"?>
<!-- Created with Inkscape (http://www.inkscape.org/) -->

<svg
   width="128.86482mm"
   height="23.683384mm"
   viewBox="0 0 128.86483 23.683384"
   version="1.1"
   id="svg1"
   xmlns="http://www.w3.org/2000/svg"
   xmlns:svg="http://www.w3.org/2000/svg">
  <defs
     id="defs1">
    <rect
       x="147.44962"
       y="242.57841"
       width="803.83826"
       height="261.60416"
       id="rect1" />
  </defs>
  <g
     id="layer1"
     transform="translate(-39.997914,-69.011226)">
    <path
       style="font-size:96px;line-height:1.25;font-family:'Red Hat Display';-inkscape-font-specification:'Red Hat Display';white-space:pre;fill:#000000;stroke:#000000;stroke-opacity:0.2"
       d="m 220.88922,296.56184 q 0,7.584 -2.976,14.208 -2.976,6.624 -8.064,11.328 l 7.104,8.544 -7.584,1.056 -4.704,-5.664 q -3.936,2.4 -8.64,3.84 -4.704,1.344 -9.696,1.344 -7.2,0 -13.632,-2.688 -6.336,-2.688 -11.04,-7.296 -4.608,-4.704 -7.296,-11.04 -2.688,-6.432 -2.688,-13.632 0,-7.2 2.688,-13.536 2.688,-6.432 7.296,-11.04 4.704,-4.704 11.04,-7.392 6.432,-2.688 13.632,-2.688 7.2,0 13.536,2.688 6.336,2.688 10.944,7.392 4.704,4.608 7.392,11.04 2.688,6.336 2.688,13.536 z m -22.848,11.52 7.2,8.64 q 3.84,-3.84 5.952,-9.024 2.208,-5.184 2.208,-11.136 0,-5.856 -2.112,-10.944 -2.112,-5.184 -5.76,-8.832 -3.552,-3.744 -8.544,-5.856 -4.992,-2.208 -10.656,-2.208 -5.76,0 -10.752,2.208 -4.992,2.112 -8.64,5.856 -3.552,3.648 -5.664,8.832 -2.112,5.088 -2.112,10.944 0,5.856 2.112,10.944 2.112,5.088 5.664,8.832 3.648,3.744 8.64,5.952 4.992,2.112 10.752,2.112 3.84,0 7.296,-0.96 3.456,-0.96 6.432,-2.784 l -9.6,-11.424 z m 39.936,-26.016 v 28.992 q 0,6.336 3.648,10.08 3.648,3.744 9.792,3.744 4.32,0 7.68,-1.92 3.456,-2.016 5.568,-5.568 v -35.328 h 7.104 v 48.096 h -7.104 v -5.568 q -2.784,3.264 -6.624,4.896 -3.744,1.632 -8.448,1.632 -8.256,0 -13.44,-5.184 -5.184,-5.184 -5.184,-13.44 v -30.432 z m 49.43998,-9.216 q -1.92,0 -3.36,-1.44 -1.44,-1.44 -1.44,-3.36 0,-2.016 1.44,-3.36 1.44,-1.44 3.36,-1.44 2.016,0 3.36,1.44 1.44,1.344 1.44,3.36 0,1.92 -1.44,3.36 -1.344,1.44 -3.36,1.44 z m 3.552,9.216 v 48.096 h -7.104 v -48.096 z m 12.09607,67.776 v -67.776 h 7.008 v 5.184 q 3.072,-2.976 7.008,-4.416 4.032,-1.536 8.544,-1.536 5.088,0 9.504,1.92 4.416,1.92 7.68,5.28 3.264,3.264 5.088,7.872 1.92,4.512 1.92,9.696 0,5.184 -1.92,9.792 -1.824,4.608 -5.088,7.968 -3.264,3.264 -7.776,5.184 -4.416,1.92 -9.504,1.92 -4.224,0 -8.16,-1.44 -3.936,-1.44 -7.2,-4.128 v 24.48 z m 21.888,-62.304 q -4.512,0 -8.448,1.824 -3.84,1.728 -6.336,4.896 v 23.808 q 2.496,3.072 6.432,4.896 3.936,1.728 8.352,1.728 7.584,0 12.672,-5.28 5.184,-5.376 5.184,-13.248 0,-3.936 -1.44,-7.296 -1.344,-3.456 -3.744,-5.952 -2.4,-2.496 -5.664,-3.936 -3.264,-1.44 -7.008,-1.44 z m 41.56802,-5.472 v 28.992 q 0,6.336 3.648,10.08 3.648,3.744 9.792,3.744 4.32,0 7.68,-1.92 3.456,-2.016 5.568,-5.568 v -35.328 h 7.104 v 48.096 h -7.104 v -5.568 q -2.784,3.264 -6.624,4.896 -3.744,1.632 -8.448,1.632 -8.256,0 -13.44,-5.184 -5.184,-5.184 -5.184,-13.44 v -30.432 z m 68.35198,42.528 q 3.84,0 7.392,-1.536 3.552,-1.536 6.624,-4.512 l 4.416,4.8 q -3.84,3.648 -8.64,5.664 -4.8,2.016 -9.984,2.016 -5.088,0 -9.6,-1.92 -4.512,-1.92 -7.776,-5.28 -3.264,-3.36 -5.184,-7.968 -1.92,-4.608 -1.92,-9.792 0,-5.184 1.92,-9.696 1.92,-4.608 5.184,-7.968 3.264,-3.36 7.776,-5.28 4.512,-2.016 9.6,-2.016 5.184,0 10.08,2.016 4.992,2.016 8.736,5.568 l -4.512,5.184 q -2.88,-2.976 -6.624,-4.608 -3.744,-1.632 -7.584,-1.632 -3.648,0 -6.912,1.44 -3.264,1.44 -5.664,3.936 -2.304,2.496 -3.648,5.856 -1.344,3.36 -1.344,7.2 0,3.936 1.344,7.392 1.44,3.36 3.744,5.856 2.4,2.4 5.664,3.84 3.264,1.44 6.912,1.44 z m 22.656,-18.528 q 0,-5.184 1.92,-9.792 1.92,-4.608 5.184,-7.968 3.36,-3.36 7.872,-5.28 4.512,-1.92 9.6,-1.92 5.088,0 9.504,1.92 4.512,1.92 7.776,5.28 3.36,3.36 5.28,7.968 1.92,4.608 1.92,9.792 0,5.28 -1.92,9.888 -1.92,4.608 -5.28,7.968 -3.264,3.36 -7.776,5.28 -4.416,1.92 -9.504,1.92 -5.088,0 -9.6,-1.92 -4.512,-1.92 -7.872,-5.28 -3.264,-3.36 -5.184,-7.968 -1.92,-4.608 -1.92,-9.888 z m 24.576,18.72 q 3.648,0 6.816,-1.44 3.264,-1.44 5.568,-3.936 2.4,-2.592 3.744,-5.952 1.344,-3.456 1.344,-7.392 0,-3.936 -1.344,-7.296 -1.344,-3.456 -3.744,-5.952 -2.304,-2.496 -5.568,-3.936 -3.168,-1.44 -6.816,-1.44 -3.648,0 -6.912,1.44 -3.168,1.44 -5.568,3.936 -2.304,2.496 -3.744,5.952 -1.344,3.36 -1.344,7.296 0,3.936 1.344,7.392 1.344,3.36 3.648,5.952 2.4,2.496 5.664,3.936 3.264,1.44 6.912,1.44 z m 34.36796,5.376 v -48.096 h 7.104 v 6.816 q 2.112,-3.744 5.568,-5.76 3.456,-2.112 7.872,-2.112 1.344,0 2.4,0.192 1.056,0.096 2.112,0.48 v 6.528 q -1.248,-0.384 -2.496,-0.576 -1.248,-0.288 -2.496,-0.288 -4.416,0 -7.776,2.592 -3.36,2.496 -5.184,7.296 v 32.928 z m 67.29613,0 v -5.088 q -3.072,2.88 -7.104,4.416 -3.936,1.44 -8.448,1.44 -5.088,0 -9.504,-1.92 -4.416,-1.92 -7.68,-5.184 -3.264,-3.36 -5.184,-7.968 -1.824,-4.608 -1.824,-9.792 0,-5.184 1.824,-9.696 1.92,-4.608 5.184,-7.872 3.264,-3.36 7.68,-5.28 4.512,-1.92 9.6,-1.92 4.128,0 8.064,1.44 4.032,1.344 7.296,4.032 v -23.808 l 7.104,-1.632 v 68.832 z m -32.736,-24.192 q 0,3.936 1.344,7.392 1.44,3.456 3.84,5.952 2.4,2.496 5.664,3.936 3.264,1.44 7.008,1.44 4.512,0 8.352,-1.728 3.936,-1.824 6.432,-4.992 v -23.808 q -2.496,-3.072 -6.432,-4.8 -3.936,-1.824 -8.352,-1.824 -7.488,0 -12.672,5.28 -5.184,5.28 -5.184,13.152 z m 46.94402,17.568 4.32,-4.608 q 3.264,3.072 7.296,4.8 4.128,1.632 8.352,1.632 5.76,0 9.408,-2.4 3.648,-2.4 3.648,-6.24 0,-3.072 -2.208,-4.8 -2.112,-1.824 -6.72,-2.496 l -8.352,-1.152 q -7.2,-1.056 -10.752,-4.224 -3.456,-3.264 -3.456,-8.736 0,-6.048 5.088,-9.984 5.088,-4.032 12.96,-4.032 5.184,0 9.792,1.536 4.704,1.536 9.12,4.8 l -3.744,4.8 q -4.032,-2.688 -7.872,-4.032 -3.744,-1.344 -7.68,-1.344 -4.896,0 -8.064,2.208 -3.072,2.208 -3.072,5.76 0,3.072 2.112,4.8 2.112,1.632 6.816,2.304 l 8.352,1.152 q 7.2,0.96 10.752,4.32 3.648,3.264 3.648,8.736 0,3.072 -1.536,5.856 -1.44,2.688 -4.128,4.704 -2.592,1.92 -6.144,3.072 -3.552,1.056 -7.68,1.056 -5.952,0 -11.232,-1.92 -5.184,-2.016 -9.024,-5.568 z"
       id="text1"
       transform="scale(0.26458333)"
       aria-label="Quipucords" />
  </g>
</svg>
