<?xml version="1.0" encoding="UTF-8" standalone="no"?>
<!-- Created with Inkscape (http://www.inkscape.org/) -->

<svg
   width="108.91854mm"
   height="23.403982mm"
   viewBox="0 0 108.91854 23.403982"
   version="1.1"
   id="svg1"
   xmlns="http://www.w3.org/2000/svg"
   xmlns:svg="http://www.w3.org/2000/svg">
  <defs
     id="defs1">
    <rect
       x="147.44962"
       y="242.57841"
       width="803.83826"
       height="261.60416"
       id="rect1" />
  </defs>
  <g
     id="layer1"
     transform="translate(-40.836114,-69.443028)">
    <path
       style="font-size:96px;line-height:1.25;font-family:'Red Hat Display';-inkscape-font-specification:'Red Hat Display';white-space:pre;fill:#ffffff;stroke:#000000;stroke-opacity:0.2"
       d="m 534.13699,336.40184 2.784,-6.336 -19.584,-48 h 7.872 l 15.552,39.456 16.8,-39.456 h 7.68 l -23.904,55.296 q -3.072,6.912 -6.816,9.984 -3.744,3.072 -9.504,3.072 -1.344,0 -2.592,-0.192 -1.152,-0.096 -1.92,-0.288 v -6.432 q 0.96,0.192 1.824,0.288 0.96,0.096 2.208,0.096 3.264,0 5.568,-1.824 2.304,-1.824 4.032,-5.664 z"
       transform="scale(0.26458333)"
       id="path12" />
    <path
       style="font-size:96px;line-height:1.25;font-family:'Red Hat Display';-inkscape-font-specification:'Red Hat Display';white-space:pre;fill:#ffffff;stroke:#000000;stroke-opacity:0.2"
       d="m 488.72891,330.16184 v -48.096 h 7.104 v 6.816 q 2.112,-3.744 5.568,-5.76 3.456,-2.112 7.872,-2.112 1.344,0 2.4,0.192 1.056,0.096 2.112,0.48 v 6.528 q -1.248,-0.384 -2.496,-0.576 -1.248,-0.288 -2.496,-0.288 -4.416,0 -7.776,2.592 -3.36,2.496 -5.184,7.296 v 32.928 z"
       transform="scale(0.26458333)"
       id="path11" />
    <path
       style="font-size:96px;line-height:1.25;font-family:'Red Hat Display';-inkscape-font-specification:'Red Hat Display';white-space:pre;fill:#ffffff;stroke:#000000;stroke-opacity:0.2"
       d="m 475.09699,325.07384 q -4.032,2.976 -8.448,4.512 -4.32,1.44 -9.504,1.44 -5.184,0 -9.792,-1.92 -4.512,-1.92 -7.872,-5.28 -3.264,-3.36 -5.184,-7.872 -1.92,-4.608 -1.92,-9.888 0,-5.184 1.824,-9.696 1.92,-4.512 5.088,-7.872 3.168,-3.36 7.488,-5.28 4.416,-1.92 9.312,-1.92 4.8,0 8.928,1.92 4.224,1.92 7.2,5.28 3.072,3.36 4.8,7.872 1.824,4.512 1.824,9.696 v 2.208 h -39.456 q 0.768,7.104 5.856,11.808 5.088,4.704 12.192,4.704 3.744,0 7.296,-1.152 3.552,-1.152 5.952,-3.264 z m -19.2,-37.536 q -6.24,0 -10.848,4.224 -4.512,4.224 -5.472,10.848 h 32.16 q -0.96,-6.336 -5.472,-10.656 -4.416,-4.416 -10.368,-4.416 z"
       transform="scale(0.26458333)"
       id="path10" />
    <path
       style="font-size:96px;line-height:1.25;font-family:'Red Hat Display';-inkscape-font-specification:'Red Hat Display';white-space:pre;fill:#ffffff;stroke:#000000;stroke-opacity:0.2"
       d="m 402.52098,330.16184 -20.832,-48.096 h 7.872 l 16.416,38.88 16.416,-38.88 h 7.584 l -20.736,48.096 z"
       transform="scale(0.26458333)"
       id="path9" />
    <path
       style="font-size:96px;line-height:1.25;font-family:'Red Hat Display';-inkscape-font-specification:'Red Hat Display';white-space:pre;fill:#ffffff;stroke:#000000;stroke-opacity:0.2"
       d="m 330.23307,306.06584 q 0,-5.184 1.92,-9.792 1.92,-4.608 5.184,-7.968 3.36,-3.36 7.872,-5.28 4.512,-1.92 9.6,-1.92 5.088,0 9.504,1.92 4.512,1.92 7.776,5.28 3.36,3.36 5.28,7.968 1.92,4.608 1.92,9.792 0,5.28 -1.92,9.888 -1.92,4.608 -5.28,7.968 -3.264,3.36 -7.776,5.28 -4.416,1.92 -9.504,1.92 -5.088,0 -9.6,-1.92 -4.512,-1.92 -7.872,-5.28 -3.264,-3.36 -5.184,-7.968 -1.92,-4.608 -1.92,-9.888 z m 24.576,18.72 q 3.648,0 6.816,-1.44 3.264,-1.44 5.568,-3.936 2.4,-2.592 3.744,-5.952 1.344,-3.456 1.344,-7.392 0,-3.936 -1.344,-7.296 -1.344,-3.456 -3.744,-5.952 -2.304,-2.496 -5.568,-3.936 -3.168,-1.44 -6.816,-1.44 -3.648,0 -6.912,1.44 -3.168,1.44 -5.568,3.936 -2.304,2.496 -3.744,5.952 -1.344,3.36 -1.344,7.296 0,3.936 1.344,7.392 1.344,3.36 3.648,5.952 2.4,2.496 5.664,3.936 3.264,1.44 6.912,1.44 z"
       transform="scale(0.26458333)"
       id="path8" />
    <path
       style="font-size:96px;line-height:1.25;font-family:'Red Hat Display';-inkscape-font-specification:'Red Hat Display';white-space:pre;fill:#ffffff;stroke:#000000;stroke-opacity:0.2"
       d="m 307.57706,324.59384 q 3.84,0 7.392,-1.536 3.552,-1.536 6.624,-4.512 l 4.416,4.8 q -3.84,3.648 -8.64,5.664 -4.8,2.016 -9.984,2.016 -5.088,0 -9.6,-1.92 -4.512,-1.92 -7.776,-5.28 -3.264,-3.36 -5.184,-7.968 -1.92,-4.608 -1.92,-9.792 0,-5.184 1.92,-9.696 1.92,-4.608 5.184,-7.968 3.264,-3.36 7.776,-5.28 4.512,-2.016 9.6,-2.016 5.184,0 10.08,2.016 4.992,2.016 8.736,5.568 l -4.512,5.184 q -2.88,-2.976 -6.624,-4.608 -3.744,-1.632 -7.584,-1.632 -3.648,0 -6.912,1.44 -3.264,1.44 -5.664,3.936 -2.304,2.496 -3.648,5.856 -1.344,3.36 -1.344,7.2 0,3.936 1.344,7.392 1.44,3.36 3.744,5.856 2.4,2.4 5.664,3.84 3.264,1.44 6.912,1.44 z"
       transform="scale(0.26458333)"
       id="path7" />
    <path
       style="font-size:96px;line-height:1.25;font-family:'Red Hat Display';-inkscape-font-specification:'Red Hat Display';white-space:pre;fill:#ffffff;stroke:#000000;stroke-opacity:0.2"
       d="m 236.92123,323.53784 4.32,-4.608 q 3.264,3.072 7.296,4.8 4.128,1.632 8.352,1.632 5.76,0 9.408,-2.4 3.648,-2.4 3.648,-6.24 0,-3.072 -2.208,-4.8 -2.112,-1.824 -6.72,-2.496 l -8.352,-1.152 q -7.2,-1.056 -10.752,-4.224 -3.456,-3.264 -3.456,-8.736 0,-6.048 5.088,-9.984 5.088,-4.032 12.96,-4.032 5.184,0 9.792,1.536 4.704,1.536 9.12,4.8 l -3.744,4.8 q -4.032,-2.688 -7.872,-4.032 -3.744,-1.344 -7.68,-1.344 -4.896,0 -8.064,2.208 -3.072,2.208 -3.072,5.76 0,3.072 2.112,4.8 2.112,1.632 6.816,2.304 l 8.352,1.152 q 7.2,0.96 10.752,4.32 3.648,3.264 3.648,8.736 0,3.072 -1.536,5.856 -1.44,2.688 -4.128,4.704 -2.592,1.92 -6.144,3.072 -3.552,1.056 -7.68,1.056 -5.952,0 -11.232,-1.92 -5.184,-2.016 -9.024,-5.568 z"
       transform="scale(0.26458333)"
       id="path6" />
    <path
       style="font-size:96px;line-height:1.25;font-family:'Red Hat Display';-inkscape-font-specification:'Red Hat Display';white-space:pre;fill:#ffffff;stroke:#000000;stroke-opacity:0.2"
       d="m 229.72115,282.06584 v 48.096 h -7.104 v -48.096 z"
       transform="scale(0.26458333)"
       id="path5" />
    <path
       style="font-size:96px;line-height:1.25;font-family:'Red Hat Display';-inkscape-font-specification:'Red Hat Display';white-space:pre;fill:#ffffff;stroke:#000000;stroke-opacity:0.2"
       d="m 226.16915,272.84984 q -1.92,0 -3.36,-1.44 -1.44,-1.44 -1.44,-3.36 0,-2.016 1.44,-3.36 1.44,-1.44 3.36,-1.44 2.016,0 3.36,1.44 1.44,1.344 1.44,3.36 0,1.92 -1.44,3.36 -1.344,1.44 -3.36,1.44 z"
       transform="scale(0.26458333)"
       id="path4" />
    <path
       style="font-size:96px;line-height:1.25;font-family:'Red Hat Display';-inkscape-font-specification:'Red Hat Display';white-space:pre;fill:#ffffff;stroke:#000000;stroke-opacity:0.2"
       d="m 154.84122,330.16184 v -67.2 h 22.176 q 7.584,0 14.112,2.592 6.528,2.496 11.232,6.912 4.704,4.416 7.296,10.656 2.688,6.144 2.688,13.44 0,7.296 -2.688,13.536 -2.592,6.144 -7.296,10.56 -4.608,4.416 -11.136,7.008 -6.528,2.496 -14.208,2.496 z m 22.56,-60.48 h -15.168 v 53.76 h 15.168 q 5.76,0 10.848,-2.016 5.088,-2.112 8.736,-5.664 3.648,-3.648 5.76,-8.544 2.112,-4.992 2.112,-10.656 0,-5.664 -2.112,-10.56 -2.112,-4.992 -5.76,-8.544 -3.648,-3.648 -8.736,-5.664 -5.088,-2.112 -10.848,-2.112 z"
       transform="scale(0.26458333)"
       id="text1" />
  </g>
</svg>
